0
SECTION
2
HEADER
9
$ACADVER
1
AC1009
9
$INSBASE
10
0
20
0
30
0
9
$EXTMIN
10
-10000
20
-20000
30
0
9
$EXTMAX
10
12000
20
6000
30
0
9
$LIMMIN
10
-10000
20
-20000
9
$LIMMAX
10
12000
20
6000
0
ENDSEC
0
SECTION
2
TABLES
0
TABLE
2
LTYPE
70
1
0
LTYPE
2
CONTINUOUS
70
64
3
Solid line
72
65
73
0
40
0
0
ENDTAB
0
TABLE
2
LAYER
70
17
0
LAYER
2
0
70
64
62
7
6
CONTINUOUS
0
LAYER
2
OUTLINE
70
64
62
7
6
CONTINUOUS
0
LAYER
2
PROFILE
70
64
62
1
6
CONTINUOUS
0
LAYER
2
FABRIC
70
64
62
42
6
CONTINUOUS
0
LAYER
2
RAY
70
64
62
5
6
CONTINUOUS
0
LAYER
2
POST
70
64
62
6
6
CONTINUOUS
0
LAYER
2
WALL
70
64
62
8
6
CONTINUOUS
0
LAYER
2
TOPWALL
70
64
62
8
6
CONTINUOUS
0
LAYER
2
GLASS
70
64
62
4
6
CONTINUOUS
0
LAYER
2
WATER
70
64
62
5
6
CONTINUOUS
0
LAYER
2
DIM
70
64
62
1
6
CONTINUOUS
0
LAYER
2
TEXT
70
64
62
7
6
CONTINUOUS
0
LAYER
2
TABLE
70
64
62
7
6
CONTINUOUS
0
LAYER
2
TITLE
70
64
62
7
6
CONTINUOUS
0
LAYER
2
BLOCKREF
70
64
62
8
6
CONTINUOUS
0
LAYER
2
BLOCK
70
64
62
7
6
CONTINUOUS
0
LAYER
2
AUX
70
64
62
8
6
CONTINUOUS
0
ENDTAB
0
TABLE
2
STYLE
70
1
0
STYLE
2
STANDARD
70
64
40
0
41
1
50
0
71
0
42
2.5
3

4

0
ENDTAB
0
ENDSEC
0
SECTION
2
BLOCKS
0
BLOCK
8
0
2
PERGORISE_DIKME_ALT_BAGLANTI_KARSI_GORUNUS
70
0
10
0
20
0
30
0
3
PERGORISE_DIKME_ALT_BAGLANTI_KARSI_GORUNUS
1

0
CIRCLE
8
BLOCK
62
7
10
-39.1
20
27.75
30
0
40
4.2
0
CIRCLE
8
BLOCK
62
7
10
0
20
3
30
0
40
31.25
0
LINE
8
BLOCK
62
7
10
53.5
20
-33.25
30
0
11
51.5
21
-33.25
31
0
0
CIRCLE
8
BLOCK
62
7
10
0
20
3
30
0
40
37.0336
0
LINE
8
BLOCK
62
7
10
-51.5
20
42.25
30
0
11
51.5
21
42.25
31
0
0
LINE
8
BLOCK
62
7
10
-51.5
20
3.75
30
0
11
51.5
21
3.75
31
0
0
POLYLINE
8
BLOCK
62
7
66
1
10
0
20
0
30
0
70
0
0
VERTEX
8
BLOCK
62
7
10
-32
20
-42.25
30
0
70
0
0
VERTEX
8
BLOCK
62
7
10
-32
20
-39.25
30
0
70
0
0
VERTEX
8
BLOCK
62
7
10
-34
20
-37.25
30
0
70
0
0
VERTEX
8
BLOCK
62
7
10
-38
20
-37.25
30
0
70
0
0
VERTEX
8
BLOCK
62
7
10
-47.5
20
-37.25
30
0
70
0
0
VERTEX
8
BLOCK
62
7
10
-51.5
20
-37.25
30
0
70
0
0
VERTEX
8
BLOCK
62
7
10
-53.5
20
-39.25
30
0
70
0
0
VERTEX
8
BLOCK
62
7
10
-53.5
20
-33.25
30
0
70
0
0
VERTEX
8
BLOCK
62
7
10
-51.5
20
-33.25
30
0
70
0
0
SEQEND
0
POLYLINE
8
BLOCK
62
7
66
1
10
0
20
0
30
0
70
0
0
VERTEX
8
BLOCK
62
7
10
20.6
20
-42.25
30
0
70
0
0
VERTEX
8
BLOCK
62
7
10
20.6
20
-33.25
30
0
70
0
0
VERTEX
8
BLOCK
62
7
10
51.5
20
-33.25
30
0
70
0
0
VERTEX
8
BLOCK
62
7
10
51.5
20
42.25
30
0
70
0
0
VERTEX
8
BLOCK
62
7
10
53.5
20
42.25
30
0
70
0
0
VERTEX
8
BLOCK
62
7
10
53.5
20
-33.25
30
0
70
0
0
VERTEX
8
BLOCK
62
7
10
53.5
20
-39.25
30
0
70
0
0
VERTEX
8
BLOCK
62
7
10
51.5
20
-37.25
30
0
70
0
0
VERTEX
8
BLOCK
62
7
10
47.5
20
-37.25
30
0
70
0
0
VERTEX
8
BLOCK
62
7
10
38
20
-37.25
30
0
70
0
0
VERTEX
8
BLOCK
62
7
10
34
20
-37.25
30
0
70
0
0
VERTEX
8
BLOCK
62
7
10
32
20
-39.25
30
0
70
0
0
VERTEX
8
BLOCK
62
7
10
32
20
-42.25
30
0
70
0
0
VERTEX
8
BLOCK
62
7
10
20.6
20
-42.25
30
0
70
0
0
VERTEX
8
BLOCK
62
7
10
-20.6
20
-42.25
30
0
70
0
0
VERTEX
8
BLOCK
62
7
10
-53.5
20
-42.25
30
0
70
0
0
VERTEX
8
BLOCK
62
7
10
-53.5
20
-39.25
30
0
70
0
0
SEQEND
0
POLYLINE
8
BLOCK
62
7
66
1
10
0
20
0
30
0
70
0
0
VERTEX
8
BLOCK
62
7
10
32
20
-42.25
30
0
70
0
0
VERTEX
8
BLOCK
62
7
10
38
20
-42.25
30
0
70
0
0
VERTEX
8
BLOCK
62
7
10
47.5
20
-42.25
30
0
70
0
0
VERTEX
8
BLOCK
62
7
10
53.5
20
-42.25
30
0
70
0
0
VERTEX
8
BLOCK
62
7
10
53.5
20
-39.25
30
0
70
0
0
SEQEND
0
POLYLINE
8
BLOCK
62
7
66
1
10
0
20
0
30
0
70
0
0
VERTEX
8
BLOCK
62
7
10
-53.5
20
-33.25
30
0
70
0
0
VERTEX
8
BLOCK
62
7
10
-53.5
20
42.25
30
0
70
0
0
VERTEX
8
BLOCK
62
7
10
-51.5
20
42.25
30
0
70
0
0
VERTEX
8
BLOCK
62
7
10
-51.5
20
-33.25
30
0
70
0
0
VERTEX
8
BLOCK
62
7
10
-20.6
20
-33.25
30
0
70
0
0
VERTEX
8
BLOCK
62
7
10
-20.6
20
-42.25
30
0
70
0
0
SEQEND
0
CIRCLE
8
BLOCK
62
7
10
39.1
20
27.75
30
0
40
4.2
0
ENDBLK
8
0
0
BLOCK
8
0
2
PERGORISE_DIKME_OLUK_BAGLANTI_UST_GORUNUS
70
0
10
0
20
0
30
0
3
PERGORISE_DIKME_OLUK_BAGLANTI_UST_GORUNUS
1

0
CIRCLE
8
BLOCK
62
7
10
-62.5
20
-49.5
30
0
40
4.75
0
CIRCLE
8
BLOCK
62
7
10
-62.5
20
60
30
0
40
4.75
0
CIRCLE
8
BLOCK
62
7
10
62.5
20
60
30
0
40
4.75
0
CIRCLE
8
BLOCK
62
7
10
62.5
20
-49.5
30
0
40
4.75
0
CIRCLE
8
BLOCK
62
7
10
0
20
-22.5008
30
0
40
40
0
CIRCLE
8
BLOCK
62
7
10
-40.15
20
17.6492
30
0
40
3.5
0
CIRCLE
8
BLOCK
62
7
10
-40.15
20
-62.6508
30
0
40
3.5
0
CIRCLE
8
BLOCK
62
7
10
40.15
20
-62.6508
30
0
40
3.5
0
CIRCLE
8
BLOCK
62
7
10
40.15
20
17.6492
30
0
40
3.5
0
POLYLINE
8
BLOCK
62
7
66
1
10
0
20
0
30
0
70
1
0
VERTEX
8
BLOCK
62
7
10
-75
20
-62.5008
30
0
70
0
0
VERTEX
8
BLOCK
62
7
10
-75
20
72.5008
30
0
70
0
0
VERTEX
8
BLOCK
62
7
10
75
20
72.5008
30
0
70
0
0
VERTEX
8
BLOCK
62
7
10
75
20
-62.5008
30
0
70
0
0
VERTEX
8
BLOCK
62
7
10
65
20
-72.5008
30
0
70
0
0
VERTEX
8
BLOCK
62
7
10
-65
20
-72.5008
30
0
70
0
0
SEQEND
0
ENDBLK
8
0
0
BLOCK
8
0
2
PERGORISE_DIKME_OLUK_BAGLANTI_YAN_GORUNUS
70
0
10
0
20
0
30
0
3
PERGORISE_DIKME_OLUK_BAGLANTI_YAN_GORUNUS
1

0
POLYLINE
8
BLOCK
62
7
66
1
10
0
20
0
30
0
70
1
0
VERTEX
8
BLOCK
62
7
10
1.5
20
-72.5
30
0
70
0
0
VERTEX
8
BLOCK
62
7
10
-1.5
20
-72.5
30
0
70
0
0
VERTEX
8
BLOCK
62
7
10
-1.5
20
72.5
30
0
70
0
0
VERTEX
8
BLOCK
62
7
10
1.5
20
72.5
30
0
70
0
0
SEQEND
0
ENDBLK
8
0
0
BLOCK
8
0
2
PERGORISE_DIKME_UST_GORUNUS
70
0
10
0
20
0
30
0
3
PERGORISE_DIKME_UST_GORUNUS
1

0
LINE
8
0
62
7
10
50
20
49.8
30
0
11
49.997
21
49.8347
31
0
0
LINE
8
0
62
7
10
49.997
20
49.8347
30
0
11
0
21
-50
31
0
0
LINE
8
0
62
7
10
0
20
-50
30
0
11
49.8
21
50
31
0
0
LINE
8
0
62
7
10
0
20
-50
30
0
11
50
21
49.8
31
0
0
LINE
8
0
62
7
10
49.8
20
-50
30
0
11
49.8347
21
-49.997
31
0
0
LINE
8
0
62
7
10
49.8347
20
-49.997
30
0
11
0
21
-50
31
0
0
LINE
8
0
62
7
10
50
20
-49.8
30
0
11
49.8
21
-50
31
0
0
LINE
8
0
62
7
10
49.8
20
50
30
0
11
-49.8
21
50
31
0
0
LINE
8
0
62
7
10
-50
20
-49.8
30
0
11
-49.997
21
-49.8347
31
0
0
LINE
8
0
62
7
10
-49.997
20
-49.8347
30
0
11
0
21
-50
31
0
0
LINE
8
0
62
7
10
-49.8
20
-50
30
0
11
-49.8
21
50
31
0
0
LINE
8
0
62
7
10
0
20
-50
30
0
11
-50
21
-49.8
31
0
0
LINE
8
0
62
7
10
-49.8
20
50
30
0
11
-49.8347
21
49.997
31
0
0
LINE
8
0
62
7
10
-49.8347
20
49.997
30
0
11
0
21
-50
31
0
0
LINE
8
0
62
7
10
-50
20
49.8
30
0
11
-49.8
21
50
31
0
0
LINE
8
0
62
7
10
-40.1527
20
-37.3
30
0
11
-40.7085
21
-37.3552
31
0
0
LINE
8
0
62
7
10
-40.7085
20
-37.3552
30
0
11
0
21
-50
31
0
0
LINE
8
0
62
7
10
0
20
-50
30
0
11
-40.1527
21
-37.3
31
0
0
LINE
8
0
62
7
10
-46.0373
20
-48.1586
30
0
11
-46.0621
21
-48.1889
31
0
0
LINE
8
0
62
7
10
-46.0621
20
-48.1889
30
0
11
0
21
-50
31
0
0
LINE
8
0
62
7
10
0
20
-50
30
0
11
-46.0373
21
-48.1586
31
0
0
LINE
8
0
62
7
10
-42.2248
20
-44.5338
30
0
11
-42.2577
21
-44.5216
31
0
0
LINE
8
0
62
7
10
-42.2577
20
-44.5216
30
0
11
0
21
-50
31
0
0
LINE
8
0
62
7
10
-42.4518
20
-44.5731
30
0
11
-42.2248
21
-44.5338
31
0
0
LINE
8
0
62
7
10
-35.7436
20
-39.3227
30
0
11
-39.1916
21
-36.5727
31
0
0
LINE
8
0
62
7
10
-39.1916
20
-36.5727
30
0
11
-39.2581
21
-36.7449
31
0
0
LINE
8
0
62
7
10
-37.0064
20
-39.4459
30
0
11
-39.2581
21
-36.7449
31
0
0
LINE
8
0
62
7
10
38.7653
20
-44.7981
30
0
11
37.9429
21
-44.4687
31
0
0
LINE
8
0
62
7
10
38.7653
20
-44.7981
30
0
11
45.8958
21
-48.5
31
0
0
LINE
8
0
62
7
10
45.8958
20
-48.5
30
0
11
45.9349
21
-48.4962
31
0
0
LINE
8
0
62
7
10
45.9349
20
-48.4962
30
0
11
0
21
-50
31
0
0
LINE
8
0
62
7
10
-39.1579
20
-36.3913
30
0
11
37.9429
21
-44.4687
31
0
0
LINE
8
0
62
7
10
37.3
20
-40.1527
30
0
11
37.3552
21
-40.7085
31
0
0
LINE
8
0
62
7
10
37.3552
20
-40.7085
30
0
11
0
21
-50
31
0
0
LINE
8
0
62
7
10
0
20
-50
30
0
11
37.3
21
-40.1527
31
0
0
LINE
8
0
62
7
10
48.1586
20
-46.0373
30
0
11
48.1864
21
-46.0604
31
0
0
LINE
8
0
62
7
10
48.1864
20
-46.0604
30
0
11
0
21
-50
31
0
0
LINE
8
0
62
7
10
0
20
-50
30
0
11
48.1586
21
-46.0373
31
0
0
LINE
8
0
62
7
10
44.5338
20
-42.2248
30
0
11
44.5216
21
-42.2577
31
0
0
LINE
8
0
62
7
10
44.5216
20
-42.2577
30
0
11
0
21
-50
31
0
0
LINE
8
0
62
7
10
44.5731
20
-42.4518
30
0
11
44.5338
21
-42.2248
31
0
0
LINE
8
0
62
7
10
39.3227
20
-35.7436
30
0
11
36.5727
21
-39.1916
31
0
0
LINE
8
0
62
7
10
36.5727
20
-39.1916
30
0
11
36.7449
21
-39.2581
31
0
0
LINE
8
0
62
7
10
39.4459
20
-37.0064
30
0
11
36.7449
21
-39.2581
31
0
0
LINE
8
0
62
7
10
39.2589
20
35.8534
30
0
11
39.1921
21
36.0254
31
0
0
LINE
8
0
62
7
10
0
20
-50
30
0
11
39.2589
21
35.8534
31
0
0
LINE
8
0
62
7
10
36.3913
20
-39.1579
30
0
11
36.5727
21
-39.1916
31
0
0
LINE
8
0
62
7
10
40.1546
20
35.3
30
0
11
36.5727
21
-39.1916
31
0
0
LINE
8
0
62
7
10
44.7981
20
38.7653
30
0
11
48.5
21
45.8958
31
0
0
LINE
8
0
62
7
10
48.5
20
45.8958
30
0
11
48.4967
21
45.9319
31
0
0
LINE
8
0
62
7
10
48.4967
20
45.9319
30
0
11
0
21
-50
31
0
0
LINE
8
0
62
7
10
36.3913
20
-39.1579
30
0
11
39.1921
21
36.0254
31
0
0
LINE
8
0
62
7
10
39.1921
20
36.0254
30
0
11
-39.3562
21
-35.6966
31
0
0
LINE
8
0
62
7
10
35.8534
20
-39.2589
30
0
11
-39.3562
21
-35.6966
31
0
0
LINE
8
0
62
7
10
-39.3562
20
-35.6966
30
0
11
-39.2589
21
-35.8534
31
0
0
LINE
8
0
62
7
10
35.3
20
-40.1546
30
0
11
-39.2589
21
-35.8534
31
0
0
LINE
8
0
62
7
10
40.1527
20
37.3
30
0
11
40.7085
21
37.3552
31
0
0
LINE
8
0
62
7
10
40.7085
20
37.3552
30
0
11
0
21
-50
31
0
0
LINE
8
0
62
7
10
0
20
-50
30
0
11
40.1527
21
37.3
31
0
0
LINE
8
0
62
7
10
46.0373
20
48.1586
30
0
11
46.0621
21
48.1889
31
0
0
LINE
8
0
62
7
10
46.0621
20
48.1889
30
0
11
0
21
-50
31
0
0
LINE
8
0
62
7
10
0
20
-50
30
0
11
46.0373
21
48.1586
31
0
0
LINE
8
0
62
7
10
42.2248
20
44.5338
30
0
11
42.2577
21
44.5216
31
0
0
LINE
8
0
62
7
10
42.2577
20
44.5216
30
0
11
0
21
-50
31
0
0
LINE
8
0
62
7
10
42.4518
20
44.5731
30
0
11
42.2248
21
44.5338
31
0
0
LINE
8
0
62
7
10
35.7436
20
39.3227
30
0
11
39.1916
21
36.5727
31
0
0
LINE
8
0
62
7
10
39.1916
20
36.5727
30
0
11
39.2581
21
36.7449
31
0
0
LINE
8
0
62
7
10
37.0064
20
39.4459
30
0
11
39.2581
21
36.7449
31
0
0
LINE
8
0
62
7
10
-37.3
20
40.1527
30
0
11
-37.3552
21
40.7085
31
0
0
LINE
8
0
62
7
10
-37.3552
20
40.7085
30
0
11
0
21
-50
31
0
0
LINE
8
0
62
7
10
0
20
-50
30
0
11
-42.9455
21
39.5951
31
0
0
LINE
8
0
62
7
10
-42.9455
20
39.5951
30
0
11
-42.7836
21
39.0606
31
0
0
LINE
8
0
62
7
10
-42.7836
20
39.0606
30
0
11
0
21
-50
31
0
0
LINE
8
0
62
7
10
0
20
-50
30
0
11
-37.3
21
40.1527
31
0
0
LINE
8
0
62
7
10
-42.1665
20
38.136
30
0
11
-41.7351
21
37.7814
31
0
0
LINE
8
0
62
7
10
-41.7351
20
37.7814
30
0
11
0
21
-50
31
0
0
LINE
8
0
62
7
10
-37.2828
20
39.969
30
0
11
-42.1665
21
38.136
31
0
0
LINE
8
0
62
7
10
-41.2427
20
37.5178
30
0
11
-40.7085
21
37.3552
31
0
0
LINE
8
0
62
7
10
-40.7085
20
37.3552
30
0
11
0
21
-50
31
0
0
LINE
8
0
62
7
10
-37.2321
20
39.7915
30
0
11
-41.2427
21
37.5178
31
0
0
LINE
8
0
62
7
10
-39.5973
20
37.1309
30
0
11
-39.4459
21
37.0064
31
0
0
LINE
8
0
62
7
10
0
20
-50
30
0
11
-39.5973
21
37.1309
31
0
0
LINE
8
0
62
7
10
-37.1497
20
39.6264
30
0
11
-40.1527
21
37.3
31
0
0
LINE
8
0
62
7
10
-39.1727
20
36.4942
30
0
11
-39.1537
21
36.299
31
0
0
LINE
8
0
62
7
10
0
20
-50
30
0
11
-39.1727
21
36.4942
31
0
0
LINE
8
0
62
7
10
-36.9019
20
39.3551
30
0
11
-37.0384
21
39.4793
31
0
0
LINE
8
0
62
7
10
-36.9019
20
39.3551
30
0
11
-39.1537
21
36.299
31
0
0
LINE
8
0
62
7
10
39.1579
20
36.3913
30
0
11
39.1916
21
36.5727
31
0
0
LINE
8
0
62
7
10
-35.3
20
40.1546
30
0
11
39.1916
21
36.5727
31
0
0
LINE
8
0
62
7
10
-38.7653
20
44.7981
30
0
11
-45.8958
21
48.5
31
0
0
LINE
8
0
62
7
10
-45.8958
20
48.5
30
0
11
-45.9349
21
48.4962
31
0
0
LINE
8
0
62
7
10
-45.9349
20
48.4962
30
0
11
0
21
-50
31
0
0
LINE
8
0
62
7
10
-43.3935
20
36.5442
30
0
11
-43.9953
21
37.1943
31
0
0
LINE
8
0
62
7
10
0
20
-50
30
0
11
-43.3935
21
36.5442
31
0
0
LINE
8
0
62
7
10
39.158
20
36.2068
30
0
11
39.1579
21
36.3913
31
0
0
LINE
8
0
62
7
10
-39.4807
20
-35.5604
30
0
11
-39.3562
21
-35.6966
31
0
0
LINE
8
0
62
7
10
39.158
20
36.2068
30
0
11
-39.4807
21
-35.5604
31
0
0
LINE
8
0
62
7
10
-39.4807
20
-35.5604
30
0
11
-43.9953
21
37.1943
31
0
0
LINE
8
0
62
7
10
-43.9953
20
37.1943
30
0
11
-40.1546
21
-35.3
31
0
0
LINE
8
0
62
7
10
-48.1586
20
46.0373
30
0
11
-48.1864
21
46.0604
31
0
0
LINE
8
0
62
7
10
-48.1864
20
46.0604
30
0
11
0
21
-50
31
0
0
LINE
8
0
62
7
10
0
20
-50
30
0
11
-48.1586
21
46.0373
31
0
0
LINE
8
0
62
7
10
-44.5338
20
42.2248
30
0
11
-44.5216
21
42.2577
31
0
0
LINE
8
0
62
7
10
-44.5216
20
42.2577
30
0
11
0
21
-50
31
0
0
LINE
8
0
62
7
10
-44.5731
20
42.4518
30
0
11
-44.5338
21
42.2248
31
0
0
LINE
8
0
62
7
10
-41.0367
20
-35.3817
30
0
11
-40.1546
21
-35.3
31
0
0
LINE
8
0
62
7
10
-48.5
20
-45.8958
30
0
11
-48.4967
21
-45.9319
31
0
0
LINE
8
0
62
7
10
-48.4967
20
-45.9319
30
0
11
0
21
-50
31
0
0
LINE
8
0
62
7
10
-41.8891
20
-35.6225
30
0
11
-41.0367
21
-35.3817
31
0
0
LINE
8
0
62
7
10
0
20
-50
30
0
11
-41.8891
21
-35.6225
31
0
0
LINE
8
0
62
7
10
-48.5
20
45.8958
30
0
11
-48.5
21
-45.8958
31
0
0
LINE
8
0
62
7
10
-48.5
20
-45.8958
30
0
11
0
21
-50
31
0
0
LINE
8
0
62
7
10
-44.7981
20
-38.7653
30
0
11
-48.5
21
-45.8958
31
0
0
ENDBLK
8
0
0
BLOCK
8
0
2
PERGORISE_DIKME_ALT_BAGLANTI_YAN_GORUNUS
70
0
10
0
20
0
30
0
3
PERGORISE_DIKME_ALT_BAGLANTI_YAN_GORUNUS
1

0
POLYLINE
8
BLOCK
62
7
66
1
10
0
20
0
30
0
70
1
0
VERTEX
8
BLOCK
62
7
10
42.8
20
3.75
30
0
70
0
0
VERTEX
8
BLOCK
62
7
10
42.8
20
42.25
30
0
70
0
0
VERTEX
8
BLOCK
62
7
10
-60.2
20
42.25
30
0
70
0
0
VERTEX
8
BLOCK
62
7
10
-60.2
20
3.75
30
0
70
0
0
SEQEND
0
POLYLINE
8
BLOCK
62
7
66
1
10
0
20
0
30
0
70
0
0
VERTEX
8
BLOCK
62
7
10
42.8
20
42.25
30
0
70
0
0
VERTEX
8
BLOCK
62
7
10
44.8
20
42.25
30
0
70
0
0
VERTEX
8
BLOCK
62
7
10
44.8
20
-33.25
30
0
70
0
0
VERTEX
8
BLOCK
62
7
10
48.8
20
-37.25
30
0
70
0
0
VERTEX
8
BLOCK
62
7
10
60.2
20
-37.25
30
0
70
0
0
VERTEX
8
BLOCK
62
7
10
62.2
20
-39.25
30
0
70
0
0
VERTEX
8
BLOCK
62
7
10
62.2
20
-42.25
30
0
70
0
0
VERTEX
8
BLOCK
62
7
10
56.2
20
-42.25
30
0
70
0
0
VERTEX
8
BLOCK
62
7
10
-60.2
20
-42.25
30
0
70
0
0
VERTEX
8
BLOCK
62
7
10
-62.2
20
-42.25
30
0
70
0
0
VERTEX
8
BLOCK
62
7
10
-62.2
20
42.25
30
0
70
0
0
VERTEX
8
BLOCK
62
7
10
-60.2
20
42.25
30
0
70
0
0
SEQEND
0
POLYLINE
8
BLOCK
62
7
66
1
10
0
20
0
30
0
70
0
0
VERTEX
8
BLOCK
62
7
10
44.8265
20
-33.7093
30
0
70
0
0
VERTEX
8
BLOCK
62
7
10
46.7325
20
-32.0347
30
0
70
0
0
VERTEX
8
BLOCK
62
7
10
58.6338
20
-31.6326
30
0
70
0
0
VERTEX
8
BLOCK
62
7
10
59.6
20
-30.6332
30
0
70
0
0
VERTEX
8
BLOCK
62
7
10
59.6
20
3
30
0
70
0
0
VERTEX
8
BLOCK
62
7
10
59.6
20
36.6332
30
0
70
0
0
VERTEX
8
BLOCK
62
7
10
58.6338
20
37.6326
30
0
70
0
0
VERTEX
8
BLOCK
62
7
10
46.7325
20
38.0347
30
0
70
0
0
VERTEX
8
BLOCK
62
7
10
44.8
20
40.0336
30
0
70
0
0
SEQEND
0
ENDBLK
8
0
0
BLOCK
8
0
2
PERGORISE_DIKME_OLUK_BAGLANTI_KARSI_GORUNUS
70
0
10
0
20
0
30
0
3
PERGORISE_DIKME_OLUK_BAGLANTI_KARSI_GORUNUS
1

0
POLYLINE
8
BLOCK
62
7
66
1
10
0
20
0
30
0
70
1
0
VERTEX
8
BLOCK
62
7
10
-75
20
-1.5
30
0
70
0
0
VERTEX
8
BLOCK
62
7
10
-75
20
1.5
30
0
70
0
0
VERTEX
8
BLOCK
62
7
10
75
20
1.5
30
0
70
0
0
VERTEX
8
BLOCK
62
7
10
75
20
-1.5
30
0
70
0
0
SEQEND
0
ENDBLK
8
0
0
ENDSEC
0
SECTION
2
ENTITIES
0
POLYLINE
8
TOPWALL
62
8
66
1
10
0
20
0
30
0
70
1
0
VERTEX
8
TOPWALL
62
8
10
294
20
0
30
0
70
0
0
VERTEX
8
TOPWALL
62
8
10
4294
20
0
30
0
70
0
0
VERTEX
8
TOPWALL
62
8
10
4294
20
800
30
0
70
0
0
VERTEX
8
TOPWALL
62
8
10
294
20
800
30
0
70
0
0
SEQEND
0
POLYLINE
8
BLOCKREF
62
8
66
1
10
0
20
0
30
0
70
1
0
VERTEX
8
BLOCKREF
62
8
10
300
20
0
30
0
70
0
0
VERTEX
8
BLOCKREF
62
8
10
4288
20
0
30
0
70
0
0
VERTEX
8
BLOCKREF
62
8
10
4288
20
800
30
0
70
0
0
VERTEX
8
BLOCKREF
62
8
10
300
20
800
30
0
70
0
0
SEQEND
0
LINE
8
BLOCKREF
62
8
10
300
20
400
30
0
11
4288
21
400
31
0
0
LINE
8
BLOCKREF
62
8
10
2294
20
0
30
0
11
2294
21
800
31
0
0
TEXT
8
BLOCKREF
62
8
10
2294
20
-32
30
0
40
28
1
Duvar Tarama Block
50
0
7
STANDARD
72
1
73
2
11
2294
21
-32
31
0
0
POLYLINE
8
RAY
62
5
66
1
10
0
20
0
30
0
70
1
0
VERTEX
8
RAY
62
5
10
300
20
-215
30
0
70
0
0
VERTEX
8
RAY
62
5
10
380
20
-215
30
0
70
0
0
VERTEX
8
RAY
62
5
10
380
20
-4503
30
0
70
0
0
VERTEX
8
RAY
62
5
10
300
20
-4503
30
0
70
0
0
SEQEND
0
POLYLINE
8
RAY
62
5
66
1
10
0
20
0
30
0
70
1
0
VERTEX
8
RAY
62
5
10
333.5
20
-215
30
0
70
0
0
VERTEX
8
RAY
62
5
10
346.5
20
-215
30
0
70
0
0
VERTEX
8
RAY
62
5
10
346.5
20
-4503
30
0
70
0
0
VERTEX
8
RAY
62
5
10
333.5
20
-4503
30
0
70
0
0
SEQEND
0
POLYLINE
8
BLOCKREF
62
8
66
1
10
0
20
0
30
0
70
1
0
VERTEX
8
BLOCKREF
62
8
10
292.5
20
-251
30
0
70
0
0
VERTEX
8
BLOCKREF
62
8
10
387.5
20
-251
30
0
70
0
0
VERTEX
8
BLOCKREF
62
8
10
387.5
20
-179
30
0
70
0
0
VERTEX
8
BLOCKREF
62
8
10
292.5
20
-179
30
0
70
0
0
SEQEND
0
LINE
8
BLOCKREF
62
8
10
292.5
20
-215
30
0
11
387.5
21
-215
31
0
0
LINE
8
BLOCKREF
62
8
10
340
20
-251
30
0
11
340
21
-179
31
0
0
TEXT
8
BLOCKREF
62
8
10
340
20
-283
30
0
40
28
1
PergoRise Ray Arka Mekanizma Ust Gorunus
50
0
7
STANDARD
72
1
73
2
11
340
21
-283
31
0
0
POLYLINE
8
BLOCKREF
62
8
66
1
10
0
20
0
30
0
70
1
0
VERTEX
8
BLOCKREF
62
8
10
290
20
-4543
30
0
70
0
0
VERTEX
8
BLOCKREF
62
8
10
390
20
-4543
30
0
70
0
0
VERTEX
8
BLOCKREF
62
8
10
390
20
-4463
30
0
70
0
0
VERTEX
8
BLOCKREF
62
8
10
290
20
-4463
30
0
70
0
0
SEQEND
0
LINE
8
BLOCKREF
62
8
10
290
20
-4503
30
0
11
390
21
-4503
31
0
0
LINE
8
BLOCKREF
62
8
10
340
20
-4543
30
0
11
340
21
-4463
31
0
0
TEXT
8
BLOCKREF
62
8
10
340
20
-4575
30
0
40
28
1
PergoRise Ray Kafasi Ust Gorunus
50
0
7
STANDARD
72
1
73
2
11
340
21
-4575
31
0
0
POLYLINE
8
RAY
62
5
66
1
10
0
20
0
30
0
70
1
0
VERTEX
8
RAY
62
5
10
4208
20
-215
30
0
70
0
0
VERTEX
8
RAY
62
5
10
4288
20
-215
30
0
70
0
0
VERTEX
8
RAY
62
5
10
4288
20
-4503
30
0
70
0
0
VERTEX
8
RAY
62
5
10
4208
20
-4503
30
0
70
0
0
SEQEND
0
POLYLINE
8
RAY
62
5
66
1
10
0
20
0
30
0
70
1
0
VERTEX
8
RAY
62
5
10
4241.5
20
-215
30
0
70
0
0
VERTEX
8
RAY
62
5
10
4254.5
20
-215
30
0
70
0
0
VERTEX
8
RAY
62
5
10
4254.5
20
-4503
30
0
70
0
0
VERTEX
8
RAY
62
5
10
4241.5
20
-4503
30
0
70
0
0
SEQEND
0
POLYLINE
8
BLOCKREF
62
8
66
1
10
0
20
0
30
0
70
1
0
VERTEX
8
BLOCKREF
62
8
10
4200.5
20
-251
30
0
70
0
0
VERTEX
8
BLOCKREF
62
8
10
4295.5
20
-251
30
0
70
0
0
VERTEX
8
BLOCKREF
62
8
10
4295.5
20
-179
30
0
70
0
0
VERTEX
8
BLOCKREF
62
8
10
4200.5
20
-179
30
0
70
0
0
SEQEND
0
LINE
8
BLOCKREF
62
8
10
4200.5
20
-215
30
0
11
4295.5
21
-215
31
0
0
LINE
8
BLOCKREF
62
8
10
4248
20
-251
30
0
11
4248
21
-179
31
0
0
TEXT
8
BLOCKREF
62
8
10
4248
20
-283
30
0
40
28
1
PergoRise Ray Arka Mekanizma Ust Gorunus
50
0
7
STANDARD
72
1
73
2
11
4248
21
-283
31
0
0
POLYLINE
8
BLOCKREF
62
8
66
1
10
0
20
0
30
0
70
1
0
VERTEX
8
BLOCKREF
62
8
10
4198
20
-4543
30
0
70
0
0
VERTEX
8
BLOCKREF
62
8
10
4298
20
-4543
30
0
70
0
0
VERTEX
8
BLOCKREF
62
8
10
4298
20
-4463
30
0
70
0
0
VERTEX
8
BLOCKREF
62
8
10
4198
20
-4463
30
0
70
0
0
SEQEND
0
LINE
8
BLOCKREF
62
8
10
4198
20
-4503
30
0
11
4298
21
-4503
31
0
0
LINE
8
BLOCKREF
62
8
10
4248
20
-4543
30
0
11
4248
21
-4463
31
0
0
TEXT
8
BLOCKREF
62
8
10
4248
20
-4575
30
0
40
28
1
PergoRise Ray Kafasi Ust Gorunus
50
0
7
STANDARD
72
1
73
2
11
4248
21
-4575
31
0
0
POLYLINE
8
PROFILE
62
1
66
1
10
0
20
0
30
0
70
1
0
VERTEX
8
PROFILE
62
1
10
250
20
-4500
30
0
70
0
0
VERTEX
8
PROFILE
62
1
10
4338
20
-4500
30
0
70
0
0
VERTEX
8
PROFILE
62
1
10
4338
20
-4355
30
0
70
0
0
VERTEX
8
PROFILE
62
1
10
250
20
-4355
30
0
70
0
0
SEQEND
0
POLYLINE
8
PROFILE
62
1
66
1
10
0
20
0
30
0
70
1
0
VERTEX
8
PROFILE
62
1
10
250
20
-4500
30
0
70
0
0
VERTEX
8
PROFILE
62
1
10
4338
20
-4500
30
0
70
0
0
VERTEX
8
PROFILE
62
1
10
4338
20
-4464.5
30
0
70
0
0
VERTEX
8
PROFILE
62
1
10
250
20
-4464.5
30
0
70
0
0
SEQEND
0
POLYLINE
8
PROFILE
62
1
66
1
10
0
20
0
30
0
70
1
0
VERTEX
8
PROFILE
62
1
10
250
20
-4355
30
0
70
0
0
VERTEX
8
PROFILE
62
1
10
4338
20
-4355
30
0
70
0
0
VERTEX
8
PROFILE
62
1
10
4338
20
-4367.7
30
0
70
0
0
VERTEX
8
PROFILE
62
1
10
250
20
-4367.7
30
0
70
0
0
SEQEND
0
POLYLINE
8
BLOCKREF
62
8
66
1
10
0
20
0
30
0
70
1
0
VERTEX
8
BLOCKREF
62
8
10
305
20
-4560
30
0
70
0
0
VERTEX
8
BLOCKREF
62
8
10
695
20
-4560
30
0
70
0
0
VERTEX
8
BLOCKREF
62
8
10
695
20
-4440
30
0
70
0
0
VERTEX
8
BLOCKREF
62
8
10
305
20
-4440
30
0
70
0
0
SEQEND
0
LINE
8
BLOCKREF
62
8
10
305
20
-4500
30
0
11
695
21
-4500
31
0
0
LINE
8
BLOCKREF
62
8
10
500
20
-4560
30
0
11
500
21
-4440
31
0
0
TEXT
8
BLOCKREF
62
8
10
500
20
-4592
30
0
40
28
1
PergoRise Oluk
50
0
7
STANDARD
72
1
73
2
11
500
21
-4592
31
0
0
INSERT
8
POST
2
PERGORISE_DIKME_UST_GORUNUS
10
350
20
-4500
30
0
41
1
42
1
43
1
50
0
0
INSERT
8
BLOCKREF
2
PERGORISE_DIKME_OLUK_BAGLANTI_UST_GORUNUS
10
350
20
-4500
30
0
41
1
42
1
43
1
50
0
0
INSERT
8
POST
2
PERGORISE_DIKME_UST_GORUNUS
10
4238
20
-4500
30
0
41
1
42
1
43
1
50
0
0
INSERT
8
BLOCKREF
2
PERGORISE_DIKME_OLUK_BAGLANTI_UST_GORUNUS
10
4238
20
-4500
30
0
41
1
42
1
43
1
50
0
0
POLYLINE
8
FABRIC
62
42
66
1
10
0
20
0
30
0
70
1
0
VERTEX
8
FABRIC
62
42
10
380
20
-400
30
0
70
0
0
VERTEX
8
FABRIC
62
42
10
4208
20
-400
30
0
70
0
0
VERTEX
8
FABRIC
62
42
10
4208
20
-370
30
0
70
0
0
VERTEX
8
FABRIC
62
42
10
380
20
-370
30
0
70
0
0
SEQEND
0
POLYLINE
8
FABRIC
62
42
66
1
10
0
20
0
30
0
70
1
0
VERTEX
8
FABRIC
62
42
10
380
20
-931.6816
30
0
70
0
0
VERTEX
8
FABRIC
62
42
10
4208
20
-931.6816
30
0
70
0
0
VERTEX
8
FABRIC
62
42
10
4208
20
-901.6816
30
0
70
0
0
VERTEX
8
FABRIC
62
42
10
380
20
-901.6816
30
0
70
0
0
SEQEND
0
TEXT
8
TITLE
62
7
10
2294
20
-2250
30
0
40
220
1
PERGO RISE
50
0
7
STANDARD
72
1
73
2
11
2294
21
-2250
31
0
0
LINE
8
DIM
62
1
10
300
20
0
30
0
11
300
21
800
31
0
0
LINE
8
DIM
62
1
10
4300
20
0
30
0
11
4300
21
800
31
0
0
LINE
8
DIM
62
1
10
300
20
800
30
0
11
4300
21
800
31
0
0
LINE
8
DIM
62
1
10
300
20
800
30
0
11
238.6585
21
833.7228
31
0
0
LINE
8
DIM
62
1
10
300
20
800
30
0
11
238.6585
21
766.2772
31
0
0
LINE
8
DIM
62
1
10
4300
20
800
30
0
11
4361.3415
21
766.2772
31
0
0
LINE
8
DIM
62
1
10
4300
20
800
30
0
11
4361.3415
21
833.7228
31
0
0
TEXT
8
DIM
62
1
10
2300
20
895
30
0
40
85
1
GENISLIK 4000 mm
50
0
7
STANDARD
72
1
73
2
11
2300
21
895
31
0
0
LINE
8
DIM
62
1
10
100
20
0
30
0
11
100
21
0
31
0
0
LINE
8
DIM
62
1
10
100
20
-4500
30
0
11
100
21
-4500
31
0
0
LINE
8
DIM
62
1
10
100
20
0
30
0
11
100
21
-4500
31
0
0
LINE
8
DIM
62
1
10
100
20
0
30
0
11
66.2772
21
-61.3415
31
0
0
LINE
8
DIM
62
1
10
100
20
0
30
0
11
133.7228
21
-61.3415
31
0
0
LINE
8
DIM
62
1
10
100
20
-4500
30
0
11
133.7228
21
-4438.6585
31
0
0
LINE
8
DIM
62
1
10
100
20
-4500
30
0
11
66.2772
21
-4438.6585
31
0
0
TEXT
8
DIM
62
1
10
-20
20
-2250
30
0
40
85
1
ACILIM 4500 mm
50
90
7
STANDARD
72
1
73
2
11
-20
21
-2250
31
0
0
TEXT
8
TITLE
62
7
10
300
20
1050
30
0
40
110
1
UST GORUNUS - PERI01 KOORDINAT MANTIGI
50
0
7
STANDARD
0
POLYLINE
8
PROFILE
62
1
66
1
10
0
20
0
30
0
70
1
0
VERTEX
8
PROFILE
62
1
10
250
20
-5600
30
0
70
0
0
VERTEX
8
PROFILE
62
1
10
4338
20
-5600
30
0
70
0
0
VERTEX
8
PROFILE
62
1
10
4338
20
-5465
30
0
70
0
0
VERTEX
8
PROFILE
62
1
10
250
20
-5465
30
0
70
0
0
SEQEND
0
POLYLINE
8
RAY
62
5
66
1
10
0
20
0
30
0
70
1
0
VERTEX
8
RAY
62
5
10
300
20
-5000
30
0
70
0
0
VERTEX
8
RAY
62
5
10
380
20
-5000
30
0
70
0
0
VERTEX
8
RAY
62
5
10
380
20
-5467
30
0
70
0
0
VERTEX
8
RAY
62
5
10
300
20
-5467
30
0
70
0
0
SEQEND
0
POLYLINE
8
BLOCKREF
62
8
66
1
10
0
20
0
30
0
70
1
0
VERTEX
8
BLOCKREF
62
8
10
285
20
-5502
30
0
70
0
0
VERTEX
8
BLOCKREF
62
8
10
395
20
-5502
30
0
70
0
0
VERTEX
8
BLOCKREF
62
8
10
395
20
-5432
30
0
70
0
0
VERTEX
8
BLOCKREF
62
8
10
285
20
-5432
30
0
70
0
0
SEQEND
0
LINE
8
BLOCKREF
62
8
10
285
20
-5467
30
0
11
395
21
-5467
31
0
0
LINE
8
BLOCKREF
62
8
10
340
20
-5502
30
0
11
340
21
-5432
31
0
0
TEXT
8
BLOCKREF
62
8
10
340
20
-5534
30
0
40
28
1
PergoRise Ray Kafasi On Gorunus
50
0
7
STANDARD
72
1
73
2
11
340
21
-5534
31
0
0
POLYLINE
8
RAY
62
5
66
1
10
0
20
0
30
0
70
1
0
VERTEX
8
RAY
62
5
10
4208
20
-5000
30
0
70
0
0
VERTEX
8
RAY
62
5
10
4288
20
-5000
30
0
70
0
0
VERTEX
8
RAY
62
5
10
4288
20
-5467
30
0
70
0
0
VERTEX
8
RAY
62
5
10
4208
20
-5467
30
0
70
0
0
SEQEND
0
POLYLINE
8
BLOCKREF
62
8
66
1
10
0
20
0
30
0
70
1
0
VERTEX
8
BLOCKREF
62
8
10
4193
20
-5502
30
0
70
0
0
VERTEX
8
BLOCKREF
62
8
10
4303
20
-5502
30
0
70
0
0
VERTEX
8
BLOCKREF
62
8
10
4303
20
-5432
30
0
70
0
0
VERTEX
8
BLOCKREF
62
8
10
4193
20
-5432
30
0
70
0
0
SEQEND
0
LINE
8
BLOCKREF
62
8
10
4193
20
-5467
30
0
11
4303
21
-5467
31
0
0
LINE
8
BLOCKREF
62
8
10
4248
20
-5502
30
0
11
4248
21
-5432
31
0
0
TEXT
8
BLOCKREF
62
8
10
4248
20
-5534
30
0
40
28
1
PergoRise Ray Kafasi On Gorunus
50
0
7
STANDARD
72
1
73
2
11
4248
21
-5534
31
0
0
INSERT
8
BLOCKREF
2
PERGORISE_DIKME_OLUK_BAGLANTI_KARSI_GORUNUS
10
350
20
-5600
30
0
41
1
42
1
43
1
50
0
0
POLYLINE
8
POST
62
6
66
1
10
0
20
0
30
0
70
1
0
VERTEX
8
POST
62
6
10
300
20
-5603
30
0
70
0
0
VERTEX
8
POST
62
6
10
400
20
-5603
30
0
70
0
0
VERTEX
8
POST
62
6
10
400
20
-8154
30
0
70
0
0
VERTEX
8
POST
62
6
10
300
20
-8154
30
0
70
0
0
SEQEND
0
INSERT
8
BLOCKREF
2
PERGORISE_DIKME_ALT_BAGLANTI_KARSI_GORUNUS
10
350
20
-8154
30
0
41
1
42
1
43
1
50
0
0
INSERT
8
BLOCKREF
2
PERGORISE_DIKME_OLUK_BAGLANTI_KARSI_GORUNUS
10
4238
20
-5600
30
0
41
1
42
1
43
1
50
0
0
POLYLINE
8
POST
62
6
66
1
10
0
20
0
30
0
70
1
0
VERTEX
8
POST
62
6
10
4188
20
-5603
30
0
70
0
0
VERTEX
8
POST
62
6
10
4288
20
-5603
30
0
70
0
0
VERTEX
8
POST
62
6
10
4288
20
-8154
30
0
70
0
0
VERTEX
8
POST
62
6
10
4188
20
-8154
30
0
70
0
0
SEQEND
0
INSERT
8
BLOCKREF
2
PERGORISE_DIKME_ALT_BAGLANTI_KARSI_GORUNUS
10
4238
20
-8154
30
0
41
1
42
1
43
1
50
0
0
LINE
8
DIM
62
1
10
300
20
-8280
30
0
11
300
21
-8550
31
0
0
LINE
8
DIM
62
1
10
4300
20
-8280
30
0
11
4300
21
-8550
31
0
0
LINE
8
DIM
62
1
10
300
20
-8550
30
0
11
4300
21
-8550
31
0
0
LINE
8
DIM
62
1
10
300
20
-8550
30
0
11
238.6585
21
-8516.2772
31
0
0
LINE
8
DIM
62
1
10
300
20
-8550
30
0
11
238.6585
21
-8583.7228
31
0
0
LINE
8
DIM
62
1
10
4300
20
-8550
30
0
11
4361.3415
21
-8583.7228
31
0
0
LINE
8
DIM
62
1
10
4300
20
-8550
30
0
11
4361.3415
21
-8516.2772
31
0
0
TEXT
8
DIM
62
1
10
2300
20
-8455
30
0
40
85
1
GENISLIK 4000 mm
50
0
7
STANDARD
72
1
73
2
11
2300
21
-8455
31
0
0
LINE
8
DIM
62
1
10
200
20
-5600
30
0
11
-60
21
-5600
31
0
0
LINE
8
DIM
62
1
10
200
20
-8200
30
0
11
-60
21
-8200
31
0
0
LINE
8
DIM
62
1
10
-60
20
-5600
30
0
11
-60
21
-8200
31
0
0
LINE
8
DIM
62
1
10
-60
20
-5600
30
0
11
-93.7228
21
-5661.3415
31
0
0
LINE
8
DIM
62
1
10
-60
20
-5600
30
0
11
-26.2772
21
-5661.3415
31
0
0
LINE
8
DIM
62
1
10
-60
20
-8200
30
0
11
-26.2772
21
-8138.6585
31
0
0
LINE
8
DIM
62
1
10
-60
20
-8200
30
0
11
-93.7228
21
-8138.6585
31
0
0
TEXT
8
DIM
62
1
10
-180
20
-6900
30
0
40
85
1
ON 2600 mm
50
90
7
STANDARD
72
1
73
2
11
-180
21
-6900
31
0
0
TEXT
8
TITLE
62
7
10
300
20
-5180
30
0
40
110
1
ON / KARSI GORUNUS
50
0
7
STANDARD
0
POLYLINE
8
POST
62
6
66
1
10
0
20
0
30
0
70
1
0
VERTEX
8
POST
62
6
10
-1450
20
-5603
30
0
70
0
0
VERTEX
8
POST
62
6
10
-1550
20
-5603
30
0
70
0
0
VERTEX
8
POST
62
6
10
-1550
20
-8154
30
0
70
0
0
VERTEX
8
POST
62
6
10
-1450
20
-8154
30
0
70
0
0
SEQEND
0
INSERT
8
BLOCKREF
2
PERGORISE_DIKME_OLUK_BAGLANTI_YAN_GORUNUS
10
-1450
20
-5603
30
0
41
1
42
1
43
1
50
270
0
INSERT
8
BLOCKREF
2
PERGORISE_DIKME_ALT_BAGLANTI_YAN_GORUNUS
10
-1500
20
-8154
30
0
41
1
42
1
43
1
50
0
0
POLYLINE
8
BLOCKREF
62
8
66
1
10
0
20
0
30
0
70
1
0
VERTEX
8
BLOCKREF
62
8
10
-1560
20
-5667.5
30
0
70
0
0
VERTEX
8
BLOCKREF
62
8
10
-1340
20
-5667.5
30
0
70
0
0
VERTEX
8
BLOCKREF
62
8
10
-1340
20
-5532.5
30
0
70
0
0
VERTEX
8
BLOCKREF
62
8
10
-1560
20
-5532.5
30
0
70
0
0
SEQEND
0
LINE
8
BLOCKREF
62
8
10
-1560
20
-5600
30
0
11
-1340
21
-5600
31
0
0
LINE
8
BLOCKREF
62
8
10
-1450
20
-5667.5
30
0
11
-1450
21
-5532.5
31
0
0
TEXT
8
BLOCKREF
62
8
10
-1450
20
-5699.5
30
0
40
28
1
PergoRise Oluk Yan Gorunus Birlestirilmis
50
0
7
STANDARD
72
1
73
2
11
-1450
21
-5699.5
31
0
0
POLYLINE
8
WALL
62
8
66
1
10
0
20
0
30
0
70
1
0
VERTEX
8
WALL
62
8
10
-5950
20
-8200
30
0
70
0
0
VERTEX
8
WALL
62
8
10
-6550
20
-8200
30
0
70
0
0
VERTEX
8
WALL
62
8
10
-6550
20
-5000
30
0
70
0
0
VERTEX
8
WALL
62
8
10
-5950
20
-5000
30
0
70
0
0
SEQEND
0
POLYLINE
8
BLOCKREF
62
8
66
1
10
0
20
0
30
0
70
1
0
VERTEX
8
BLOCKREF
62
8
10
-6550
20
-8200
30
0
70
0
0
VERTEX
8
BLOCKREF
62
8
10
-5950
20
-8200
30
0
70
0
0
VERTEX
8
BLOCKREF
62
8
10
-5950
20
-5000
30
0
70
0
0
VERTEX
8
BLOCKREF
62
8
10
-6550
20
-5000
30
0
70
0
0
SEQEND
0
LINE
8
BLOCKREF
62
8
10
-6550
20
-6600
30
0
11
-5950
21
-6600
31
0
0
LINE
8
BLOCKREF
62
8
10
-6250
20
-8200
30
0
11
-6250
21
-5000
31
0
0
TEXT
8
BLOCKREF
62
8
10
-6250
20
-8232
30
0
40
28
1
Duvar Tarama Block
50
0
7
STANDARD
72
1
73
2
11
-6250
21
-8232
31
0
0
POLYLINE
8
BLOCKREF
62
8
66
1
10
0
20
0
30
0
70
1
0
VERTEX
8
BLOCKREF
62
8
10
-6010
20
-5047.5
30
0
70
0
0
VERTEX
8
BLOCKREF
62
8
10
-5890
20
-5047.5
30
0
70
0
0
VERTEX
8
BLOCKREF
62
8
10
-5890
20
-4952.5
30
0
70
0
0
VERTEX
8
BLOCKREF
62
8
10
-6010
20
-4952.5
30
0
70
0
0
SEQEND
0
LINE
8
BLOCKREF
62
8
10
-6010
20
-5000
30
0
11
-5890
21
-5000
31
0
0
LINE
8
BLOCKREF
62
8
10
-5950
20
-5047.5
30
0
11
-5950
21
-4952.5
31
0
0
TEXT
8
BLOCKREF
62
8
10
-5950
20
-5079.5
30
0
40
28
1
PergoRise Ray Duvar Baglanti Set
50
0
7
STANDARD
72
1
73
2
11
-5950
21
-5079.5
31
0
0
POLYLINE
8
BLOCKREF
62
8
66
1
10
0
20
0
30
0
70
1
0
VERTEX
8
BLOCKREF
62
8
10
-5948.9437
20
-5168.4968
30
0
70
0
0
VERTEX
8
BLOCKREF
62
8
10
-5814.2991
20
-5178.286
30
0
70
0
0
VERTEX
8
BLOCKREF
62
8
10
-5807.7729
20
-5088.523
30
0
70
0
0
VERTEX
8
BLOCKREF
62
8
10
-5942.4175
20
-5078.7337
30
0
70
0
0
SEQEND
0
LINE
8
BLOCKREF
62
8
10
-5945.6806
20
-5123.6153
30
0
11
-5811.036
21
-5133.4045
31
0
0
LINE
8
BLOCKREF
62
8
10
-5881.6214
20
-5173.3914
30
0
11
-5875.0952
21
-5083.6283
31
0
0
TEXT
8
BLOCKREF
62
8
10
-5878.3583
20
-5205.5099
30
0
40
28
1
PergoRise Ray Arka Mekanizma Yan Gorunus
50
355.8417
7
STANDARD
72
1
73
2
11
-5878.3583
21
-5205.5099
31
0
0
POLYLINE
8
RAY
62
5
66
1
10
0
20
0
30
0
70
1
0
VERTEX
8
RAY
62
5
10
-5692.0211
20
-5025.24
30
0
70
0
0
VERTEX
8
RAY
62
5
10
-1411.3199
20
-5336.4653
30
0
70
0
0
VERTEX
8
RAY
62
5
10
-1420.819
20
-5467.1204
30
0
70
0
0
VERTEX
8
RAY
62
5
10
-5701.5203
20
-5155.8951
30
0
70
0
0
SEQEND
0
POLYLINE
8
RAY
62
5
66
1
10
0
20
0
30
0
70
1
0
VERTEX
8
RAY
62
5
10
-5696.7126
20
-5089.7697
30
0
70
0
0
VERTEX
8
RAY
62
5
10
-1416.0114
20
-5400.995
30
0
70
0
0
VERTEX
8
RAY
62
5
10
-1416.7366
20
-5410.9687
30
0
70
0
0
VERTEX
8
RAY
62
5
10
-5697.4378
20
-5099.7433
30
0
70
0
0
SEQEND
0
POLYLINE
8
BLOCKREF
62
8
66
1
10
0
20
0
30
0
70
1
0
VERTEX
8
BLOCKREF
62
8
10
-1479.4118
20
-5376.6335
30
0
70
0
0
VERTEX
8
BLOCKREF
62
8
10
-1349.7541
20
-5386.0602
30
0
70
0
0
VERTEX
8
BLOCKREF
62
8
10
-1343.2279
20
-5296.2971
30
0
70
0
0
VERTEX
8
BLOCKREF
62
8
10
-1472.8857
20
-5286.8704
30
0
70
0
0
SEQEND
0
LINE
8
BLOCKREF
62
8
10
-1476.1487
20
-5331.752
30
0
11
-1346.491
21
-5341.1786
31
0
0
LINE
8
BLOCKREF
62
8
10
-1414.5829
20
-5381.3468
30
0
11
-1408.0568
21
-5291.5838
31
0
0
TEXT
8
BLOCKREF
62
8
10
-1411.3199
20
-5413.4653
30
0
40
28
1
PergoRise Ray Kafasi Yan Gorunus
50
355.8417
7
STANDARD
72
1
73
2
11
-1411.3199
21
-5413.4653
31
0
0
POLYLINE
8
FABRIC
62
42
66
1
10
0
20
0
30
0
70
1
0
VERTEX
8
FABRIC
62
42
10
-5643.3097
20
-5182.6867
30
0
70
0
0
VERTEX
8
FABRIC
62
42
10
-5463.7836
20
-5195.739
30
0
70
0
0
VERTEX
8
FABRIC
62
42
10
-5460.5205
20
-5150.8575
30
0
70
0
0
VERTEX
8
FABRIC
62
42
10
-5640.0467
20
-5137.8051
30
0
70
0
0
SEQEND
0
LINE
8
FABRIC
62
42
10
-5641.6782
20
-5160.2459
30
0
11
-5462.1521
21
-5173.2982
31
0
0
LINE
8
FABRIC
62
42
10
-5553.5467
20
-5189.2128
30
0
11
-5550.2836
21
-5144.3313
31
0
0
TEXT
8
FABRIC
62
42
10
-5551.9151
20
-5221.2721
30
0
40
28
1
PergoRise Cati Kayit Profili
50
355.8417
7
STANDARD
72
1
73
2
11
-5551.9151
21
-5221.2721
31
0
0
POLYLINE
8
FABRIC
62
42
66
1
10
0
20
0
30
0
70
1
0
VERTEX
8
FABRIC
62
42
10
-5132.9751
20
-5219.7902
30
0
70
0
0
VERTEX
8
FABRIC
62
42
10
-4953.449
20
-5232.8425
30
0
70
0
0
VERTEX
8
FABRIC
62
42
10
-4950.1859
20
-5187.961
30
0
70
0
0
VERTEX
8
FABRIC
62
42
10
-5129.712
20
-5174.9086
30
0
70
0
0
SEQEND
0
LINE
8
FABRIC
62
42
10
-5131.3436
20
-5197.3494
30
0
11
-4951.8174
21
-5210.4017
31
0
0
LINE
8
FABRIC
62
42
10
-5043.2121
20
-5226.3163
30
0
11
-5039.949
21
-5181.4348
31
0
0
TEXT
8
FABRIC
62
42
10
-5041.5805
20
-5258.3756
30
0
40
28
1
PergoRise Cati Kayit Profili
50
355.8417
7
STANDARD
72
1
73
2
11
-5041.5805
21
-5258.3756
31
0
0
POLYLINE
8
BLOCKREF
62
8
66
1
10
0
20
0
30
0
70
1
0
VERTEX
8
BLOCKREF
62
8
10
-1683.3646
20
-5354.7868
30
0
70
0
0
VERTEX
8
BLOCKREF
62
8
10
-1473.9174
20
-5370.0145
30
0
70
0
0
VERTEX
8
BLOCKREF
62
8
10
-1468.4789
20
-5295.2119
30
0
70
0
0
VERTEX
8
BLOCKREF
62
8
10
-1677.9261
20
-5279.9842
30
0
70
0
0
SEQEND
0
LINE
8
BLOCKREF
62
8
10
-1680.6453
20
-5317.3855
30
0
11
-1471.1982
21
-5332.6132
31
0
0
LINE
8
BLOCKREF
62
8
10
-1578.641
20
-5362.4006
30
0
11
-1573.2025
21
-5287.5981
31
0
0
TEXT
8
BLOCKREF
62
8
10
-1575.9217
20
-5394.4994
30
0
40
28
1
PergoRise RayCekici Araba Set Kalin
50
355.8417
7
STANDARD
72
1
73
2
11
-1575.9217
21
-5394.4994
31
0
0
POLYLINE
8
BLOCKREF
62
8
66
1
10
0
20
0
30
0
70
1
0
VERTEX
8
BLOCKREF
62
8
10
-2132.2452
20
-5323.0536
30
0
70
0
0
VERTEX
8
BLOCKREF
62
8
10
-1922.798
20
-5338.2813
30
0
70
0
0
VERTEX
8
BLOCKREF
62
8
10
-1917.3596
20
-5263.4788
30
0
70
0
0
VERTEX
8
BLOCKREF
62
8
10
-2126.8067
20
-5248.2511
30
0
70
0
0
SEQEND
0
LINE
8
BLOCKREF
62
8
10
-2129.526
20
-5285.6523
30
0
11
-1920.0788
21
-5300.88
31
0
0
LINE
8
BLOCKREF
62
8
10
-2027.5216
20
-5330.6675
30
0
11
-2022.0831
21
-5255.8649
31
0
0
TEXT
8
BLOCKREF
62
8
10
-2024.8024
20
-5362.7662
30
0
40
28
1
PergoRise RayCekici Araba Set Ince
50
355.8417
7
STANDARD
72
1
73
2
11
-2024.8024
21
-5362.7662
31
0
0
TEXT
8
TEXT
62
7
10
-3551.6705
20
-5040.8526
30
0
40
170
1
4.16
50
0
7
STANDARD
72
1
73
2
11
-3551.6705
21
-5040.8526
31
0
0
LINE
8
DIM
62
1
10
-5950
20
-8450
30
0
11
-5950
21
-8720
31
0
0
LINE
8
DIM
62
1
10
-1450
20
-8450
30
0
11
-1450
21
-8720
31
0
0
LINE
8
DIM
62
1
10
-5950
20
-8720
30
0
11
-1450
21
-8720
31
0
0
LINE
8
DIM
62
1
10
-5950
20
-8720
30
0
11
-6011.3415
21
-8686.2772
31
0
0
LINE
8
DIM
62
1
10
-5950
20
-8720
30
0
11
-6011.3415
21
-8753.7228
31
0
0
LINE
8
DIM
62
1
10
-1450
20
-8720
30
0
11
-1388.6585
21
-8753.7228
31
0
0
LINE
8
DIM
62
1
10
-1450
20
-8720
30
0
11
-1388.6585
21
-8686.2772
31
0
0
TEXT
8
DIM
62
1
10
-3700
20
-8625
30
0
40
85
1
ACILIM 4500 mm
50
0
7
STANDARD
72
1
73
2
11
-3700
21
-8625
31
0
0
LINE
8
DIM
62
1
10
-6630
20
-8200
30
0
11
-6910
21
-8200
31
0
0
LINE
8
DIM
62
1
10
-6630
20
-5000
30
0
11
-6910
21
-5000
31
0
0
LINE
8
DIM
62
1
10
-6910
20
-8200
30
0
11
-6910
21
-5000
31
0
0
LINE
8
DIM
62
1
10
-6910
20
-8200
30
0
11
-6943.7228
21
-8261.3415
31
0
0
LINE
8
DIM
62
1
10
-6910
20
-8200
30
0
11
-6876.2772
21
-8261.3415
31
0
0
LINE
8
DIM
62
1
10
-6910
20
-5000
30
0
11
-6876.2772
21
-4938.6585
31
0
0
LINE
8
DIM
62
1
10
-6910
20
-5000
30
0
11
-6943.7228
21
-4938.6585
31
0
0
TEXT
8
DIM
62
1
10
-7030
20
-6600
30
0
40
85
1
ARKA 3200 mm
50
90
7
STANDARD
72
1
73
2
11
-7030
21
-6600
31
0
0
LINE
8
DIM
62
1
10
-1320
20
-8154
30
0
11
-1030
21
-8154
31
0
0
LINE
8
DIM
62
1
10
-1320
20
-5600
30
0
11
-1030
21
-5600
31
0
0
LINE
8
DIM
62
1
10
-1030
20
-8154
30
0
11
-1030
21
-5600
31
0
0
LINE
8
DIM
62
1
10
-1030
20
-8154
30
0
11
-1063.7228
21
-8215.3415
31
0
0
LINE
8
DIM
62
1
10
-1030
20
-8154
30
0
11
-996.2772
21
-8215.3415
31
0
0
LINE
8
DIM
62
1
10
-1030
20
-5600
30
0
11
-996.2772
21
-5538.6585
31
0
0
LINE
8
DIM
62
1
10
-1030
20
-5600
30
0
11
-1063.7228
21
-5538.6585
31
0
0
TEXT
8
DIM
62
1
10
-1150
20
-6877
30
0
40
85
1
ON 2600 mm
50
90
7
STANDARD
72
1
73
2
11
-1150
21
-6877
31
0
0
TEXT
8
TITLE
62
7
10
-5950
20
-4150
30
0
40
110
1
YAN GORUNUS
50
0
7
STANDARD
0
TEXT
8
TITLE
62
7
10
5488
20
1060
30
0
40
110
1
PROJE / SISTEM BILGILERI
50
0
7
STANDARD
0
POLYLINE
8
TABLE
62
7
66
1
10
0
20
0
30
0
70
1
0
VERTEX
8
TABLE
62
7
10
5488
20
800
30
0
70
0
0
VERTEX
8
TABLE
62
7
10
6688
20
800
30
0
70
0
0
VERTEX
8
TABLE
62
7
10
6688
20
980
30
0
70
0
0
VERTEX
8
TABLE
62
7
10
5488
20
980
30
0
70
0
0
SEQEND
0
POLYLINE
8
TABLE
62
7
66
1
10
0
20
0
30
0
70
1
0
VERTEX
8
TABLE
62
7
10
6688
20
800
30
0
70
0
0
VERTEX
8
TABLE
62
7
10
8488
20
800
30
0
70
0
0
VERTEX
8
TABLE
62
7
10
8488
20
980
30
0
70
0
0
VERTEX
8
TABLE
62
7
10
6688
20
980
30
0
70
0
0
SEQEND
0
TEXT
8
TEXT
62
7
10
5533
20
890
30
0
40
70
1
Musteri
50
0
7
STANDARD
0
TEXT
8
TEXT
62
7
10
6733
20
890
30
0
40
70
1
DENEME
50
0
7
STANDARD
0
POLYLINE
8
TABLE
62
7
66
1
10
0
20
0
30
0
70
1
0
VERTEX
8
TABLE
62
7
10
5488
20
620
30
0
70
0
0
VERTEX
8
TABLE
62
7
10
6688
20
620
30
0
70
0
0
VERTEX
8
TABLE
62
7
10
6688
20
800
30
0
70
0
0
VERTEX
8
TABLE
62
7
10
5488
20
800
30
0
70
0
0
SEQEND
0
POLYLINE
8
TABLE
62
7
66
1
10
0
20
0
30
0
70
1
0
VERTEX
8
TABLE
62
7
10
6688
20
620
30
0
70
0
0
VERTEX
8
TABLE
62
7
10
8488
20
620
30
0
70
0
0
VERTEX
8
TABLE
62
7
10
8488
20
800
30
0
70
0
0
VERTEX
8
TABLE
62
7
10
6688
20
800
30
0
70
0
0
SEQEND
0
TEXT
8
TEXT
62
7
10
5533
20
710
30
0
40
70
1
Proje
50
0
7
STANDARD
0
TEXT
8
TEXT
62
7
10
6733
20
710
30
0
40
70
1
DENEME
50
0
7
STANDARD
0
POLYLINE
8
TABLE
62
7
66
1
10
0
20
0
30
0
70
1
0
VERTEX
8
TABLE
62
7
10
5488
20
440
30
0
70
0
0
VERTEX
8
TABLE
62
7
10
6688
20
440
30
0
70
0
0
VERTEX
8
TABLE
62
7
10
6688
20
620
30
0
70
0
0
VERTEX
8
TABLE
62
7
10
5488
20
620
30
0
70
0
0
SEQEND
0
POLYLINE
8
TABLE
62
7
66
1
10
0
20
0
30
0
70
1
0
VERTEX
8
TABLE
62
7
10
6688
20
440
30
0
70
0
0
VERTEX
8
TABLE
62
7
10
8488
20
440
30
0
70
0
0
VERTEX
8
TABLE
62
7
10
8488
20
620
30
0
70
0
0
VERTEX
8
TABLE
62
7
10
6688
20
620
30
0
70
0
0
SEQEND
0
TEXT
8
TEXT
62
7
10
5533
20
530
30
0
40
70
1
Versiyon
50
0
7
STANDARD
0
TEXT
8
TEXT
62
7
10
6733
20
530
30
0
40
70
1
01
50
0
7
STANDARD
0
POLYLINE
8
TABLE
62
7
66
1
10
0
20
0
30
0
70
1
0
VERTEX
8
TABLE
62
7
10
5488
20
260
30
0
70
0
0
VERTEX
8
TABLE
62
7
10
6688
20
260
30
0
70
0
0
VERTEX
8
TABLE
62
7
10
6688
20
440
30
0
70
0
0
VERTEX
8
TABLE
62
7
10
5488
20
440
30
0
70
0
0
SEQEND
0
POLYLINE
8
TABLE
62
7
66
1
10
0
20
0
30
0
70
1
0
VERTEX
8
TABLE
62
7
10
6688
20
260
30
0
70
0
0
VERTEX
8
TABLE
62
7
10
8488
20
260
30
0
70
0
0
VERTEX
8
TABLE
62
7
10
8488
20
440
30
0
70
0
0
VERTEX
8
TABLE
62
7
10
6688
20
440
30
0
70
0
0
SEQEND
0
TEXT
8
TEXT
62
7
10
5533
20
350
30
0
40
70
1
Cizen
50
0
7
STANDARD
0
TEXT
8
TEXT
62
7
10
6733
20
350
30
0
40
70
1
AYETULLAH KILINC
50
0
7
STANDARD
0
POLYLINE
8
TABLE
62
7
66
1
10
0
20
0
30
0
70
1
0
VERTEX
8
TABLE
62
7
10
5488
20
80
30
0
70
0
0
VERTEX
8
TABLE
62
7
10
6688
20
80
30
0
70
0
0
VERTEX
8
TABLE
62
7
10
6688
20
260
30
0
70
0
0
VERTEX
8
TABLE
62
7
10
5488
20
260
30
0
70
0
0
SEQEND
0
POLYLINE
8
TABLE
62
7
66
1
10
0
20
0
30
0
70
1
0
VERTEX
8
TABLE
62
7
10
6688
20
80
30
0
70
0
0
VERTEX
8
TABLE
62
7
10
8488
20
80
30
0
70
0
0
VERTEX
8
TABLE
62
7
10
8488
20
260
30
0
70
0
0
VERTEX
8
TABLE
62
7
10
6688
20
260
30
0
70
0
0
SEQEND
0
TEXT
8
TEXT
62
7
10
5533
20
170
30
0
40
70
1
Tarih
50
0
7
STANDARD
0
TEXT
8
TEXT
62
7
10
6733
20
170
30
0
40
70
1
06.07.2026
50
0
7
STANDARD
0
POLYLINE
8
TABLE
62
7
66
1
10
0
20
0
30
0
70
1
0
VERTEX
8
TABLE
62
7
10
5488
20
-100
30
0
70
0
0
VERTEX
8
TABLE
62
7
10
6688
20
-100
30
0
70
0
0
VERTEX
8
TABLE
62
7
10
6688
20
80
30
0
70
0
0
VERTEX
8
TABLE
62
7
10
5488
20
80
30
0
70
0
0
SEQEND
0
POLYLINE
8
TABLE
62
7
66
1
10
0
20
0
30
0
70
1
0
VERTEX
8
TABLE
62
7
10
6688
20
-100
30
0
70
0
0
VERTEX
8
TABLE
62
7
10
8488
20
-100
30
0
70
0
0
VERTEX
8
TABLE
62
7
10
8488
20
80
30
0
70
0
0
VERTEX
8
TABLE
62
7
10
6688
20
80
30
0
70
0
0
SEQEND
0
TEXT
8
TEXT
62
7
10
5533
20
-10
30
0
40
70
1
Genislik
50
0
7
STANDARD
0
TEXT
8
TEXT
62
7
10
6733
20
-10
30
0
40
70
1
4000 mm
50
0
7
STANDARD
0
POLYLINE
8
TABLE
62
7
66
1
10
0
20
0
30
0
70
1
0
VERTEX
8
TABLE
62
7
10
5488
20
-280
30
0
70
0
0
VERTEX
8
TABLE
62
7
10
6688
20
-280
30
0
70
0
0
VERTEX
8
TABLE
62
7
10
6688
20
-100
30
0
70
0
0
VERTEX
8
TABLE
62
7
10
5488
20
-100
30
0
70
0
0
SEQEND
0
POLYLINE
8
TABLE
62
7
66
1
10
0
20
0
30
0
70
1
0
VERTEX
8
TABLE
62
7
10
6688
20
-280
30
0
70
0
0
VERTEX
8
TABLE
62
7
10
8488
20
-280
30
0
70
0
0
VERTEX
8
TABLE
62
7
10
8488
20
-100
30
0
70
0
0
VERTEX
8
TABLE
62
7
10
6688
20
-100
30
0
70
0
0
SEQEND
0
TEXT
8
TEXT
62
7
10
5533
20
-190
30
0
40
70
1
Acilim
50
0
7
STANDARD
0
TEXT
8
TEXT
62
7
10
6733
20
-190
30
0
40
70
1
4500 mm
50
0
7
STANDARD
0
POLYLINE
8
TABLE
62
7
66
1
10
0
20
0
30
0
70
1
0
VERTEX
8
TABLE
62
7
10
5488
20
-460
30
0
70
0
0
VERTEX
8
TABLE
62
7
10
6688
20
-460
30
0
70
0
0
VERTEX
8
TABLE
62
7
10
6688
20
-280
30
0
70
0
0
VERTEX
8
TABLE
62
7
10
5488
20
-280
30
0
70
0
0
SEQEND
0
POLYLINE
8
TABLE
62
7
66
1
10
0
20
0
30
0
70
1
0
VERTEX
8
TABLE
62
7
10
6688
20
-460
30
0
70
0
0
VERTEX
8
TABLE
62
7
10
8488
20
-460
30
0
70
0
0
VERTEX
8
TABLE
62
7
10
8488
20
-280
30
0
70
0
0
VERTEX
8
TABLE
62
7
10
6688
20
-280
30
0
70
0
0
SEQEND
0
TEXT
8
TEXT
62
7
10
5533
20
-370
30
0
40
70
1
Arka Yukseklik
50
0
7
STANDARD
0
TEXT
8
TEXT
62
7
10
6733
20
-370
30
0
40
70
1
3200 mm
50
0
7
STANDARD
0
POLYLINE
8
TABLE
62
7
66
1
10
0
20
0
30
0
70
1
0
VERTEX
8
TABLE
62
7
10
5488
20
-640
30
0
70
0
0
VERTEX
8
TABLE
62
7
10
6688
20
-640
30
0
70
0
0
VERTEX
8
TABLE
62
7
10
6688
20
-460
30
0
70
0
0
VERTEX
8
TABLE
62
7
10
5488
20
-460
30
0
70
0
0
SEQEND
0
POLYLINE
8
TABLE
62
7
66
1
10
0
20
0
30
0
70
1
0
VERTEX
8
TABLE
62
7
10
6688
20
-640
30
0
70
0
0
VERTEX
8
TABLE
62
7
10
8488
20
-640
30
0
70
0
0
VERTEX
8
TABLE
62
7
10
8488
20
-460
30
0
70
0
0
VERTEX
8
TABLE
62
7
10
6688
20
-460
30
0
70
0
0
SEQEND
0
TEXT
8
TEXT
62
7
10
5533
20
-550
30
0
40
70
1
On Yukseklik
50
0
7
STANDARD
0
TEXT
8
TEXT
62
7
10
6733
20
-550
30
0
40
70
1
2600 mm
50
0
7
STANDARD
0
POLYLINE
8
TABLE
62
7
66
1
10
0
20
0
30
0
70
1
0
VERTEX
8
TABLE
62
7
10
5488
20
-820
30
0
70
0
0
VERTEX
8
TABLE
62
7
10
6688
20
-820
30
0
70
0
0
VERTEX
8
TABLE
62
7
10
6688
20
-640
30
0
70
0
0
VERTEX
8
TABLE
62
7
10
5488
20
-640
30
0
70
0
0
SEQEND
0
POLYLINE
8
TABLE
62
7
66
1
10
0
20
0
30
0
70
1
0
VERTEX
8
TABLE
62
7
10
6688
20
-820
30
0
70
0
0
VERTEX
8
TABLE
62
7
10
8488
20
-820
30
0
70
0
0
VERTEX
8
TABLE
62
7
10
8488
20
-640
30
0
70
0
0
VERTEX
8
TABLE
62
7
10
6688
20
-640
30
0
70
0
0
SEQEND
0
TEXT
8
TEXT
62
7
10
5533
20
-730
30
0
40
70
1
Ray Sayisi
50
0
7
STANDARD
0
TEXT
8
TEXT
62
7
10
6733
20
-730
30
0
40
70
1
2
50
0
7
STANDARD
0
POLYLINE
8
TABLE
62
7
66
1
10
0
20
0
30
0
70
1
0
VERTEX
8
TABLE
62
7
10
5488
20
-1000
30
0
70
0
0
VERTEX
8
TABLE
62
7
10
6688
20
-1000
30
0
70
0
0
VERTEX
8
TABLE
62
7
10
6688
20
-820
30
0
70
0
0
VERTEX
8
TABLE
62
7
10
5488
20
-820
30
0
70
0
0
SEQEND
0
POLYLINE
8
TABLE
62
7
66
1
10
0
20
0
30
0
70
1
0
VERTEX
8
TABLE
62
7
10
6688
20
-1000
30
0
70
0
0
VERTEX
8
TABLE
62
7
10
8488
20
-1000
30
0
70
0
0
VERTEX
8
TABLE
62
7
10
8488
20
-820
30
0
70
0
0
VERTEX
8
TABLE
62
7
10
6688
20
-820
30
0
70
0
0
SEQEND
0
TEXT
8
TEXT
62
7
10
5533
20
-910
30
0
40
70
1
Dikme Sayisi
50
0
7
STANDARD
0
TEXT
8
TEXT
62
7
10
6733
20
-910
30
0
40
70
1
2
50
0
7
STANDARD
0
POLYLINE
8
TABLE
62
7
66
1
10
0
20
0
30
0
70
1
0
VERTEX
8
TABLE
62
7
10
5488
20
-1180
30
0
70
0
0
VERTEX
8
TABLE
62
7
10
6688
20
-1180
30
0
70
0
0
VERTEX
8
TABLE
62
7
10
6688
20
-1000
30
0
70
0
0
VERTEX
8
TABLE
62
7
10
5488
20
-1000
30
0
70
0
0
SEQEND
0
POLYLINE
8
TABLE
62
7
66
1
10
0
20
0
30
0
70
1
0
VERTEX
8
TABLE
62
7
10
6688
20
-1180
30
0
70
0
0
VERTEX
8
TABLE
62
7
10
8488
20
-1180
30
0
70
0
0
VERTEX
8
TABLE
62
7
10
8488
20
-1000
30
0
70
0
0
VERTEX
8
TABLE
62
7
10
6688
20
-1000
30
0
70
0
0
SEQEND
0
TEXT
8
TEXT
62
7
10
5533
20
-1090
30
0
40
70
1
Parapet
50
0
7
STANDARD
0
TEXT
8
TEXT
62
7
10
6733
20
-1090
30
0
40
70
1
HAYIR
50
0
7
STANDARD
0
POLYLINE
8
TABLE
62
7
66
1
10
0
20
0
30
0
70
1
0
VERTEX
8
TABLE
62
7
10
5488
20
-1360
30
0
70
0
0
VERTEX
8
TABLE
62
7
10
6688
20
-1360
30
0
70
0
0
VERTEX
8
TABLE
62
7
10
6688
20
-1180
30
0
70
0
0
VERTEX
8
TABLE
62
7
10
5488
20
-1180
30
0
70
0
0
SEQEND
0
POLYLINE
8
TABLE
62
7
66
1
10
0
20
0
30
0
70
1
0
VERTEX
8
TABLE
62
7
10
6688
20
-1360
30
0
70
0
0
VERTEX
8
TABLE
62
7
10
8488
20
-1360
30
0
70
0
0
VERTEX
8
TABLE
62
7
10
8488
20
-1180
30
0
70
0
0
VERTEX
8
TABLE
62
7
10
6688
20
-1180
30
0
70
0
0
SEQEND
0
TEXT
8
TEXT
62
7
10
5533
20
-1270
30
0
40
70
1
Parapet Yuksekligi
50
0
7
STANDARD
0
TEXT
8
TEXT
62
7
10
6733
20
-1270
30
0
40
70
1
0 mm
50
0
7
STANDARD
0
POLYLINE
8
TABLE
62
7
66
1
10
0
20
0
30
0
70
1
0
VERTEX
8
TABLE
62
7
10
5488
20
-1540
30
0
70
0
0
VERTEX
8
TABLE
62
7
10
6688
20
-1540
30
0
70
0
0
VERTEX
8
TABLE
62
7
10
6688
20
-1360
30
0
70
0
0
VERTEX
8
TABLE
62
7
10
5488
20
-1360
30
0
70
0
0
SEQEND
0
POLYLINE
8
TABLE
62
7
66
1
10
0
20
0
30
0
70
1
0
VERTEX
8
TABLE
62
7
10
6688
20
-1540
30
0
70
0
0
VERTEX
8
TABLE
62
7
10
8488
20
-1540
30
0
70
0
0
VERTEX
8
TABLE
62
7
10
8488
20
-1360
30
0
70
0
0
VERTEX
8
TABLE
62
7
10
6688
20
-1360
30
0
70
0
0
SEQEND
0
TEXT
8
TEXT
62
7
10
5533
20
-1450
30
0
40
70
1
Cam Kaydi
50
0
7
STANDARD
0
TEXT
8
TEXT
62
7
10
6733
20
-1450
30
0
40
70
1
HAYIR
50
0
7
STANDARD
0
POLYLINE
8
TABLE
62
7
66
1
10
0
20
0
30
0
70
1
0
VERTEX
8
TABLE
62
7
10
5488
20
-1720
30
0
70
0
0
VERTEX
8
TABLE
62
7
10
6688
20
-1720
30
0
70
0
0
VERTEX
8
TABLE
62
7
10
6688
20
-1540
30
0
70
0
0
VERTEX
8
TABLE
62
7
10
5488
20
-1540
30
0
70
0
0
SEQEND
0
POLYLINE
8
TABLE
62
7
66
1
10
0
20
0
30
0
70
1
0
VERTEX
8
TABLE
62
7
10
6688
20
-1720
30
0
70
0
0
VERTEX
8
TABLE
62
7
10
8488
20
-1720
30
0
70
0
0
VERTEX
8
TABLE
62
7
10
8488
20
-1540
30
0
70
0
0
VERTEX
8
TABLE
62
7
10
6688
20
-1540
30
0
70
0
0
SEQEND
0
TEXT
8
TEXT
62
7
10
5533
20
-1630
30
0
40
70
1
Ucgen Dograma
50
0
7
STANDARD
0
TEXT
8
TEXT
62
7
10
6733
20
-1630
30
0
40
70
1
HAYIR
50
0
7
STANDARD
0
POLYLINE
8
TABLE
62
7
66
1
10
0
20
0
30
0
70
1
0
VERTEX
8
TABLE
62
7
10
5488
20
-1900
30
0
70
0
0
VERTEX
8
TABLE
62
7
10
6688
20
-1900
30
0
70
0
0
VERTEX
8
TABLE
62
7
10
6688
20
-1720
30
0
70
0
0
VERTEX
8
TABLE
62
7
10
5488
20
-1720
30
0
70
0
0
SEQEND
0
POLYLINE
8
TABLE
62
7
66
1
10
0
20
0
30
0
70
1
0
VERTEX
8
TABLE
62
7
10
6688
20
-1900
30
0
70
0
0
VERTEX
8
TABLE
62
7
10
8488
20
-1900
30
0
70
0
0
VERTEX
8
TABLE
62
7
10
8488
20
-1720
30
0
70
0
0
VERTEX
8
TABLE
62
7
10
6688
20
-1720
30
0
70
0
0
SEQEND
0
TEXT
8
TEXT
62
7
10
5533
20
-1810
30
0
40
70
1
Su Cikisi Standart
50
0
7
STANDARD
0
TEXT
8
TEXT
62
7
10
6733
20
-1810
30
0
40
70
1
EVET
50
0
7
STANDARD
0
POLYLINE
8
TABLE
62
7
66
1
10
0
20
0
30
0
70
1
0
VERTEX
8
TABLE
62
7
10
5488
20
-2080
30
0
70
0
0
VERTEX
8
TABLE
62
7
10
6688
20
-2080
30
0
70
0
0
VERTEX
8
TABLE
62
7
10
6688
20
-1900
30
0
70
0
0
VERTEX
8
TABLE
62
7
10
5488
20
-1900
30
0
70
0
0
SEQEND
0
POLYLINE
8
TABLE
62
7
66
1
10
0
20
0
30
0
70
1
0
VERTEX
8
TABLE
62
7
10
6688
20
-2080
30
0
70
0
0
VERTEX
8
TABLE
62
7
10
8488
20
-2080
30
0
70
0
0
VERTEX
8
TABLE
62
7
10
8488
20
-1900
30
0
70
0
0
VERTEX
8
TABLE
62
7
10
6688
20
-1900
30
0
70
0
0
SEQEND
0
TEXT
8
TEXT
62
7
10
5533
20
-1990
30
0
40
70
1
Structure Color
50
0
7
STANDARD
0
TEXT
8
TEXT
62
7
10
6733
20
-1990
30
0
40
70
1
RAL 7016 TEXT.
50
0
7
STANDARD
0
POLYLINE
8
TABLE
62
7
66
1
10
0
20
0
30
0
70
1
0
VERTEX
8
TABLE
62
7
10
5488
20
-2260
30
0
70
0
0
VERTEX
8
TABLE
62
7
10
6688
20
-2260
30
0
70
0
0
VERTEX
8
TABLE
62
7
10
6688
20
-2080
30
0
70
0
0
VERTEX
8
TABLE
62
7
10
5488
20
-2080
30
0
70
0
0
SEQEND
0
POLYLINE
8
TABLE
62
7
66
1
10
0
20
0
30
0
70
1
0
VERTEX
8
TABLE
62
7
10
6688
20
-2260
30
0
70
0
0
VERTEX
8
TABLE
62
7
10
8488
20
-2260
30
0
70
0
0
VERTEX
8
TABLE
62
7
10
8488
20
-2080
30
0
70
0
0
VERTEX
8
TABLE
62
7
10
6688
20
-2080
30
0
70
0
0
SEQEND
0
TEXT
8
TEXT
62
7
10
5533
20
-2170
30
0
40
70
1
Fabric
50
0
7
STANDARD
0
TEXT
8
TEXT
62
7
10
6733
20
-2170
30
0
40
70
1
C 1602 - M (8116-1622)
50
0
7
STANDARD
0
POLYLINE
8
TABLE
62
7
66
1
10
0
20
0
30
0
70
1
0
VERTEX
8
TABLE
62
7
10
5488
20
-2440
30
0
70
0
0
VERTEX
8
TABLE
62
7
10
6688
20
-2440
30
0
70
0
0
VERTEX
8
TABLE
62
7
10
6688
20
-2260
30
0
70
0
0
VERTEX
8
TABLE
62
7
10
5488
20
-2260
30
0
70
0
0
SEQEND
0
POLYLINE
8
TABLE
62
7
66
1
10
0
20
0
30
0
70
1
0
VERTEX
8
TABLE
62
7
10
6688
20
-2440
30
0
70
0
0
VERTEX
8
TABLE
62
7
10
8488
20
-2440
30
0
70
0
0
VERTEX
8
TABLE
62
7
10
8488
20
-2260
30
0
70
0
0
VERTEX
8
TABLE
62
7
10
6688
20
-2260
30
0
70
0
0
SEQEND
0
TEXT
8
TEXT
62
7
10
5533
20
-2350
30
0
40
70
1
Fabric Profiles
50
0
7
STANDARD
0
TEXT
8
TEXT
62
7
10
6733
20
-2350
30
0
40
70
1
RAL 1013
50
0
7
STANDARD
0
POLYLINE
8
TABLE
62
7
66
1
10
0
20
0
30
0
70
1
0
VERTEX
8
TABLE
62
7
10
5488
20
-2620
30
0
70
0
0
VERTEX
8
TABLE
62
7
10
6688
20
-2620
30
0
70
0
0
VERTEX
8
TABLE
62
7
10
6688
20
-2440
30
0
70
0
0
VERTEX
8
TABLE
62
7
10
5488
20
-2440
30
0
70
0
0
SEQEND
0
POLYLINE
8
TABLE
62
7
66
1
10
0
20
0
30
0
70
1
0
VERTEX
8
TABLE
62
7
10
6688
20
-2620
30
0
70
0
0
VERTEX
8
TABLE
62
7
10
8488
20
-2620
30
0
70
0
0
VERTEX
8
TABLE
62
7
10
8488
20
-2440
30
0
70
0
0
VERTEX
8
TABLE
62
7
10
6688
20
-2440
30
0
70
0
0
SEQEND
0
TEXT
8
TEXT
62
7
10
5533
20
-2530
30
0
40
70
1
Motor
50
0
7
STANDARD
0
TEXT
8
TEXT
62
7
10
6733
20
-2530
30
0
40
70
1
RISING MOTOR
50
0
7
STANDARD
0
POLYLINE
8
TABLE
62
7
66
1
10
0
20
0
30
0
70
1
0
VERTEX
8
TABLE
62
7
10
5488
20
-2800
30
0
70
0
0
VERTEX
8
TABLE
62
7
10
6688
20
-2800
30
0
70
0
0
VERTEX
8
TABLE
62
7
10
6688
20
-2620
30
0
70
0
0
VERTEX
8
TABLE
62
7
10
5488
20
-2620
30
0
70
0
0
SEQEND
0
POLYLINE
8
TABLE
62
7
66
1
10
0
20
0
30
0
70
1
0
VERTEX
8
TABLE
62
7
10
6688
20
-2800
30
0
70
0
0
VERTEX
8
TABLE
62
7
10
8488
20
-2800
30
0
70
0
0
VERTEX
8
TABLE
62
7
10
8488
20
-2620
30
0
70
0
0
VERTEX
8
TABLE
62
7
10
6688
20
-2620
30
0
70
0
0
SEQEND
0
TEXT
8
TEXT
62
7
10
5533
20
-2710
30
0
40
70
1
Remote
50
0
7
STANDARD
0
TEXT
8
TEXT
62
7
10
6733
20
-2710
30
0
40
70
1
RISING 6 CHANNELS
50
0
7
STANDARD
0
POLYLINE
8
TABLE
62
7
66
1
10
0
20
0
30
0
70
1
0
VERTEX
8
TABLE
62
7
10
5488
20
-2980
30
0
70
0
0
VERTEX
8
TABLE
62
7
10
6688
20
-2980
30
0
70
0
0
VERTEX
8
TABLE
62
7
10
6688
20
-2800
30
0
70
0
0
VERTEX
8
TABLE
62
7
10
5488
20
-2800
30
0
70
0
0
SEQEND
0
POLYLINE
8
TABLE
62
7
66
1
10
0
20
0
30
0
70
1
0
VERTEX
8
TABLE
62
7
10
6688
20
-2980
30
0
70
0
0
VERTEX
8
TABLE
62
7
10
8488
20
-2980
30
0
70
0
0
VERTEX
8
TABLE
62
7
10
8488
20
-2800
30
0
70
0
0
VERTEX
8
TABLE
62
7
10
6688
20
-2800
30
0
70
0
0
SEQEND
0
TEXT
8
TEXT
62
7
10
5533
20
-2890
30
0
40
70
1
LED
50
0
7
STANDARD
0
TEXT
8
TEXT
62
7
10
6733
20
-2890
30
0
40
70
1
YES
50
0
7
STANDARD
0
POLYLINE
8
TABLE
62
7
66
1
10
0
20
0
30
0
70
1
0
VERTEX
8
TABLE
62
7
10
5488
20
-3160
30
0
70
0
0
VERTEX
8
TABLE
62
7
10
6688
20
-3160
30
0
70
0
0
VERTEX
8
TABLE
62
7
10
6688
20
-2980
30
0
70
0
0
VERTEX
8
TABLE
62
7
10
5488
20
-2980
30
0
70
0
0
SEQEND
0
POLYLINE
8
TABLE
62
7
66
1
10
0
20
0
30
0
70
1
0
VERTEX
8
TABLE
62
7
10
6688
20
-3160
30
0
70
0
0
VERTEX
8
TABLE
62
7
10
8488
20
-3160
30
0
70
0
0
VERTEX
8
TABLE
62
7
10
8488
20
-2980
30
0
70
0
0
VERTEX
8
TABLE
62
7
10
6688
20
-2980
30
0
70
0
0
SEQEND
0
TEXT
8
TEXT
62
7
10
5533
20
-3070
30
0
40
70
1
Dimmer
50
0
7
STANDARD
0
TEXT
8
TEXT
62
7
10
6733
20
-3070
30
0
40
70
1
NO
50
0
7
STANDARD
0
POLYLINE
8
TABLE
62
7
66
1
10
0
20
0
30
0
70
1
0
VERTEX
8
TABLE
62
7
10
5488
20
-3340
30
0
70
0
0
VERTEX
8
TABLE
62
7
10
6688
20
-3340
30
0
70
0
0
VERTEX
8
TABLE
62
7
10
6688
20
-3160
30
0
70
0
0
VERTEX
8
TABLE
62
7
10
5488
20
-3160
30
0
70
0
0
SEQEND
0
POLYLINE
8
TABLE
62
7
66
1
10
0
20
0
30
0
70
1
0
VERTEX
8
TABLE
62
7
10
6688
20
-3340
30
0
70
0
0
VERTEX
8
TABLE
62
7
10
8488
20
-3340
30
0
70
0
0
VERTEX
8
TABLE
62
7
10
8488
20
-3160
30
0
70
0
0
VERTEX
8
TABLE
62
7
10
6688
20
-3160
30
0
70
0
0
SEQEND
0
TEXT
8
TEXT
62
7
10
5533
20
-3250
30
0
40
70
1
Extras / Notes
50
0
7
STANDARD
0
TEXT
8
TEXT
62
7
10
6733
20
-3250
30
0
40
70
1
THE MOTOR IS ON RIGHT
50
0
7
STANDARD
0
POLYLINE
8
TITLE
62
7
66
1
10
0
20
0
30
0
70
1
0
VERTEX
8
TITLE
62
7
10
300
20
-9300
30
0
70
0
0
VERTEX
8
TITLE
62
7
10
5500
20
-9300
30
0
70
0
0
VERTEX
8
TITLE
62
7
10
5500
20
-8880
30
0
70
0
0
VERTEX
8
TITLE
62
7
10
300
20
-8880
30
0
70
0
0
SEQEND
0
POLYLINE
8
PROFILE
62
1
66
1
10
0
20
0
30
0
70
1
0
VERTEX
8
PROFILE
62
1
10
300
20
-9300
30
0
70
0
0
VERTEX
8
PROFILE
62
1
10
1230
20
-9300
30
0
70
0
0
VERTEX
8
PROFILE
62
1
10
1230
20
-8880
30
0
70
0
0
VERTEX
8
PROFILE
62
1
10
300
20
-8880
30
0
70
0
0
SEQEND
0
TEXT
8
TITLE
62
7
10
765
20
-9090
30
0
40
180
1
PLMR
50
0
7
STANDARD
72
1
73
2
11
765
21
-9090
31
0
0
TEXT
8
TITLE
62
7
10
1400
20
-9030
30
0
40
85
1
Pulumur Automation Studio | Parametrik Cizim ve Proje Otomasyonu
50
0
7
STANDARD
0
TEXT
8
DIM
62
1
10
1400
20
-9150
30
0
40
75
1
WEB DXF V6.4 - CLEAN R12 BLOCK DEFINITIONS - 06.07.2026
50
0
7
STANDARD
0
TEXT
8
TEXT
62
7
10
1400
20
-9245
30
0
40
60
1
Urun: Pergo Rise | Modul: Module 1 | Motor: Web DXF
50
0
7
STANDARD
0
ENDSEC
0
EOF
