0
SECTION
2
HEADER
9
$ACADVER
1
AC1009
9
$DWGCODEPAGE
3
ANSI_1254
9
$INSUNITS
70
4
0
ENDSEC
0
SECTION
2
TABLES
0
TABLE
2
LAYER
70
13
0
LAYER
2
OUTLINE
70
0
62
7
6
CONTINUOUS
0
LAYER
2
PROFILE
70
0
62
3
6
CONTINUOUS
0
LAYER
2
FABRIC
70
0
62
2
6
CONTINUOUS
0
LAYER
2
RAY
70
0
62
5
6
CONTINUOUS
0
LAYER
2
POST
70
0
62
30
6
CONTINUOUS
0
LAYER
2
WALL
70
0
62
8
6
CONTINUOUS
0
LAYER
2
GLASS
70
0
62
4
6
CONTINUOUS
0
LAYER
2
WATER
70
0
62
160
6
CONTINUOUS
0
LAYER
2
DIM
70
0
62
1
6
CONTINUOUS
0
LAYER
2
TEXT
70
0
62
7
6
CONTINUOUS
0
LAYER
2
TABLE
70
0
62
7
6
CONTINUOUS
0
LAYER
2
TITLE
70
0
62
7
6
CONTINUOUS
0
LAYER
2
BLOCKREF
70
0
62
7
6
CONTINUOUS
0
ENDTAB
0
ENDSEC
0
SECTION
2
ENTITIES
0
POLYLINE
8
WALL
66
1
70
1
0
VERTEX
8
WALL
10
294
20
0
30
0
0
VERTEX
8
WALL
10
4506
20
0
30
0
0
VERTEX
8
WALL
10
4506
20
800
30
0
0
VERTEX
8
WALL
10
294
20
800
30
0
0
SEQEND
0
TEXT
8
TEXT
10
2400
20
400
30
0
40
85
1
DUVAR
50
0
7
STANDARD
72
1
73
2
11
2400
21
400
31
0
0
POLYLINE
8
RAY
66
1
70
1
0
VERTEX
8
RAY
10
300
20
-215
30
0
0
VERTEX
8
RAY
10
380
20
-215
30
0
0
VERTEX
8
RAY
10
380
20
-4603
30
0
0
VERTEX
8
RAY
10
300
20
-4603
30
0
0
SEQEND
0
POLYLINE
8
RAY
66
1
70
1
0
VERTEX
8
RAY
10
333.5
20
-215
30
0
0
VERTEX
8
RAY
10
346.5
20
-215
30
0
0
VERTEX
8
RAY
10
346.5
20
-4603
30
0
0
VERTEX
8
RAY
10
333.5
20
-4603
30
0
0
SEQEND
0
POLYLINE
8
BLOCKREF
66
1
70
1
0
VERTEX
8
BLOCKREF
10
292.5
20
-251
30
0
0
VERTEX
8
BLOCKREF
10
387.5
20
-251
30
0
0
VERTEX
8
BLOCKREF
10
387.5
20
-179
30
0
0
VERTEX
8
BLOCKREF
10
292.5
20
-179
30
0
0
SEQEND
0
LINE
8
BLOCKREF
10
292.5
20
-215
30
0
11
387.5
21
-215
31
0
0
LINE
8
BLOCKREF
10
340
20
-251
30
0
11
340
21
-179
31
0
0
TEXT
8
BLOCKREF
10
340
20
-273
30
0
40
28
1
Ray Arka Mek.
50
0
7
STANDARD
72
1
73
2
11
340
21
-273
31
0
0
POLYLINE
8
BLOCKREF
66
1
70
1
0
VERTEX
8
BLOCKREF
10
290
20
-4643
30
0
0
VERTEX
8
BLOCKREF
10
390
20
-4643
30
0
0
VERTEX
8
BLOCKREF
10
390
20
-4563
30
0
0
VERTEX
8
BLOCKREF
10
290
20
-4563
30
0
0
SEQEND
0
LINE
8
BLOCKREF
10
290
20
-4603
30
0
11
390
21
-4603
31
0
0
LINE
8
BLOCKREF
10
340
20
-4643
30
0
11
340
21
-4563
31
0
0
TEXT
8
BLOCKREF
10
340
20
-4665
30
0
40
28
1
Ray Kafası
50
0
7
STANDARD
72
1
73
2
11
340
21
-4665
31
0
0
POLYLINE
8
RAY
66
1
70
1
0
VERTEX
8
RAY
10
2360
20
-215
30
0
0
VERTEX
8
RAY
10
2440
20
-215
30
0
0
VERTEX
8
RAY
10
2440
20
-4603
30
0
0
VERTEX
8
RAY
10
2360
20
-4603
30
0
0
SEQEND
0
POLYLINE
8
RAY
66
1
70
1
0
VERTEX
8
RAY
10
2393.5
20
-215
30
0
0
VERTEX
8
RAY
10
2406.5
20
-215
30
0
0
VERTEX
8
RAY
10
2406.5
20
-4603
30
0
0
VERTEX
8
RAY
10
2393.5
20
-4603
30
0
0
SEQEND
0
POLYLINE
8
BLOCKREF
66
1
70
1
0
VERTEX
8
BLOCKREF
10
2352.5
20
-251
30
0
0
VERTEX
8
BLOCKREF
10
2447.5
20
-251
30
0
0
VERTEX
8
BLOCKREF
10
2447.5
20
-179
30
0
0
VERTEX
8
BLOCKREF
10
2352.5
20
-179
30
0
0
SEQEND
0
LINE
8
BLOCKREF
10
2352.5
20
-215
30
0
11
2447.5
21
-215
31
0
0
LINE
8
BLOCKREF
10
2400
20
-251
30
0
11
2400
21
-179
31
0
0
TEXT
8
BLOCKREF
10
2400
20
-273
30
0
40
28
1
Ray Arka Mek.
50
0
7
STANDARD
72
1
73
2
11
2400
21
-273
31
0
0
POLYLINE
8
BLOCKREF
66
1
70
1
0
VERTEX
8
BLOCKREF
10
2350
20
-4643
30
0
0
VERTEX
8
BLOCKREF
10
2450
20
-4643
30
0
0
VERTEX
8
BLOCKREF
10
2450
20
-4563
30
0
0
VERTEX
8
BLOCKREF
10
2350
20
-4563
30
0
0
SEQEND
0
LINE
8
BLOCKREF
10
2350
20
-4603
30
0
11
2450
21
-4603
31
0
0
LINE
8
BLOCKREF
10
2400
20
-4643
30
0
11
2400
21
-4563
31
0
0
TEXT
8
BLOCKREF
10
2400
20
-4665
30
0
40
28
1
Ray Kafası
50
0
7
STANDARD
72
1
73
2
11
2400
21
-4665
31
0
0
POLYLINE
8
RAY
66
1
70
1
0
VERTEX
8
RAY
10
4420
20
-215
30
0
0
VERTEX
8
RAY
10
4500
20
-215
30
0
0
VERTEX
8
RAY
10
4500
20
-4603
30
0
0
VERTEX
8
RAY
10
4420
20
-4603
30
0
0
SEQEND
0
POLYLINE
8
RAY
66
1
70
1
0
VERTEX
8
RAY
10
4453.5
20
-215
30
0
0
VERTEX
8
RAY
10
4466.5
20
-215
30
0
0
VERTEX
8
RAY
10
4466.5
20
-4603
30
0
0
VERTEX
8
RAY
10
4453.5
20
-4603
30
0
0
SEQEND
0
POLYLINE
8
BLOCKREF
66
1
70
1
0
VERTEX
8
BLOCKREF
10
4412.5
20
-251
30
0
0
VERTEX
8
BLOCKREF
10
4507.5
20
-251
30
0
0
VERTEX
8
BLOCKREF
10
4507.5
20
-179
30
0
0
VERTEX
8
BLOCKREF
10
4412.5
20
-179
30
0
0
SEQEND
0
LINE
8
BLOCKREF
10
4412.5
20
-215
30
0
11
4507.5
21
-215
31
0
0
LINE
8
BLOCKREF
10
4460
20
-251
30
0
11
4460
21
-179
31
0
0
TEXT
8
BLOCKREF
10
4460
20
-273
30
0
40
28
1
Ray Arka Mek.
50
0
7
STANDARD
72
1
73
2
11
4460
21
-273
31
0
0
POLYLINE
8
BLOCKREF
66
1
70
1
0
VERTEX
8
BLOCKREF
10
4410
20
-4643
30
0
0
VERTEX
8
BLOCKREF
10
4510
20
-4643
30
0
0
VERTEX
8
BLOCKREF
10
4510
20
-4563
30
0
0
VERTEX
8
BLOCKREF
10
4410
20
-4563
30
0
0
SEQEND
0
LINE
8
BLOCKREF
10
4410
20
-4603
30
0
11
4510
21
-4603
31
0
0
LINE
8
BLOCKREF
10
4460
20
-4643
30
0
11
4460
21
-4563
31
0
0
TEXT
8
BLOCKREF
10
4460
20
-4665
30
0
40
28
1
Ray Kafası
50
0
7
STANDARD
72
1
73
2
11
4460
21
-4665
31
0
0
POLYLINE
8
PROFILE
66
1
70
1
0
VERTEX
8
PROFILE
10
250
20
-4600
30
0
0
VERTEX
8
PROFILE
10
4550
20
-4600
30
0
0
VERTEX
8
PROFILE
10
4550
20
-4455
30
0
0
VERTEX
8
PROFILE
10
250
20
-4455
30
0
0
SEQEND
0
POLYLINE
8
PROFILE
66
1
70
1
0
VERTEX
8
PROFILE
10
250
20
-4600
30
0
0
VERTEX
8
PROFILE
10
4550
20
-4600
30
0
0
VERTEX
8
PROFILE
10
4550
20
-4564.5
30
0
0
VERTEX
8
PROFILE
10
250
20
-4564.5
30
0
0
SEQEND
0
POLYLINE
8
PROFILE
66
1
70
1
0
VERTEX
8
PROFILE
10
250
20
-4455
30
0
0
VERTEX
8
PROFILE
10
4550
20
-4455
30
0
0
VERTEX
8
PROFILE
10
4550
20
-4467.7
30
0
0
VERTEX
8
PROFILE
10
250
20
-4467.7
30
0
0
SEQEND
0
POLYLINE
8
BLOCKREF
66
1
70
1
0
VERTEX
8
BLOCKREF
10
305
20
-4660
30
0
0
VERTEX
8
BLOCKREF
10
695
20
-4660
30
0
0
VERTEX
8
BLOCKREF
10
695
20
-4540
30
0
0
VERTEX
8
BLOCKREF
10
305
20
-4540
30
0
0
SEQEND
0
LINE
8
BLOCKREF
10
305
20
-4600
30
0
11
695
21
-4600
31
0
0
LINE
8
BLOCKREF
10
500
20
-4660
30
0
11
500
21
-4540
31
0
0
TEXT
8
BLOCKREF
10
500
20
-4682
30
0
40
55
1
PergoRise Oluk
50
0
7
STANDARD
72
1
73
2
11
500
21
-4682
31
0
0
POLYLINE
8
POST
66
1
70
1
0
VERTEX
8
POST
10
300
20
-4600
30
0
0
VERTEX
8
POST
10
400
20
-4600
30
0
0
VERTEX
8
POST
10
400
20
-4500
30
0
0
VERTEX
8
POST
10
300
20
-4500
30
0
0
SEQEND
0
POLYLINE
8
POST
66
1
70
1
0
VERTEX
8
POST
10
302
20
-4598
30
0
0
VERTEX
8
POST
10
398
20
-4598
30
0
0
VERTEX
8
POST
10
398
20
-4502
30
0
0
VERTEX
8
POST
10
302
20
-4502
30
0
0
SEQEND
0
POLYLINE
8
BLOCKREF
66
1
70
1
0
VERTEX
8
BLOCKREF
10
282.5
20
-4647.5
30
0
0
VERTEX
8
BLOCKREF
10
417.5
20
-4647.5
30
0
0
VERTEX
8
BLOCKREF
10
417.5
20
-4552.5
30
0
0
VERTEX
8
BLOCKREF
10
282.5
20
-4552.5
30
0
0
SEQEND
0
LINE
8
BLOCKREF
10
282.5
20
-4600
30
0
11
417.5
21
-4600
31
0
0
LINE
8
BLOCKREF
10
350
20
-4647.5
30
0
11
350
21
-4552.5
31
0
0
TEXT
8
BLOCKREF
10
350
20
-4669.5
30
0
40
28
1
Dikme Oluk Bağ.
50
0
7
STANDARD
72
1
73
2
11
350
21
-4669.5
31
0
0
TEXT
8
TEXT
10
350
20
-4550
30
0
40
45
1
D1
50
0
7
STANDARD
72
1
73
2
11
350
21
-4550
31
0
0
POLYLINE
8
POST
66
1
70
1
0
VERTEX
8
POST
10
4400
20
-4600
30
0
0
VERTEX
8
POST
10
4500
20
-4600
30
0
0
VERTEX
8
POST
10
4500
20
-4500
30
0
0
VERTEX
8
POST
10
4400
20
-4500
30
0
0
SEQEND
0
POLYLINE
8
POST
66
1
70
1
0
VERTEX
8
POST
10
4402
20
-4598
30
0
0
VERTEX
8
POST
10
4498
20
-4598
30
0
0
VERTEX
8
POST
10
4498
20
-4502
30
0
0
VERTEX
8
POST
10
4402
20
-4502
30
0
0
SEQEND
0
POLYLINE
8
BLOCKREF
66
1
70
1
0
VERTEX
8
BLOCKREF
10
4382.5
20
-4647.5
30
0
0
VERTEX
8
BLOCKREF
10
4517.5
20
-4647.5
30
0
0
VERTEX
8
BLOCKREF
10
4517.5
20
-4552.5
30
0
0
VERTEX
8
BLOCKREF
10
4382.5
20
-4552.5
30
0
0
SEQEND
0
LINE
8
BLOCKREF
10
4382.5
20
-4600
30
0
11
4517.5
21
-4600
31
0
0
LINE
8
BLOCKREF
10
4450
20
-4647.5
30
0
11
4450
21
-4552.5
31
0
0
TEXT
8
BLOCKREF
10
4450
20
-4669.5
30
0
40
28
1
Dikme Oluk Bağ.
50
0
7
STANDARD
72
1
73
2
11
4450
21
-4669.5
31
0
0
TEXT
8
TEXT
10
4450
20
-4550
30
0
40
45
1
D2
50
0
7
STANDARD
72
1
73
2
11
4450
21
-4550
31
0
0
POLYLINE
8
FABRIC
66
1
70
1
0
VERTEX
8
FABRIC
10
380
20
-400
30
0
0
VERTEX
8
FABRIC
10
2360
20
-400
30
0
0
VERTEX
8
FABRIC
10
2360
20
-370
30
0
0
VERTEX
8
FABRIC
10
380
20
-370
30
0
0
SEQEND
0
POLYLINE
8
FABRIC
66
1
70
1
0
VERTEX
8
FABRIC
10
380
20
-940.8898
30
0
0
VERTEX
8
FABRIC
10
2360
20
-940.8898
30
0
0
VERTEX
8
FABRIC
10
2360
20
-910.8898
30
0
0
VERTEX
8
FABRIC
10
380
20
-910.8898
30
0
0
SEQEND
0
POLYLINE
8
FABRIC
66
1
70
1
0
VERTEX
8
FABRIC
10
2440
20
-400
30
0
0
VERTEX
8
FABRIC
10
4420
20
-400
30
0
0
VERTEX
8
FABRIC
10
4420
20
-370
30
0
0
VERTEX
8
FABRIC
10
2440
20
-370
30
0
0
SEQEND
0
POLYLINE
8
FABRIC
66
1
70
1
0
VERTEX
8
FABRIC
10
2440
20
-940.8898
30
0
0
VERTEX
8
FABRIC
10
4420
20
-940.8898
30
0
0
VERTEX
8
FABRIC
10
4420
20
-910.8898
30
0
0
VERTEX
8
FABRIC
10
2440
20
-910.8898
30
0
0
SEQEND
0
TEXT
8
TITLE
10
2400
20
-2300
30
0
40
220
1
PERGO RISE
50
0
7
STANDARD
72
1
73
2
11
2400
21
-2300
31
0
0
LINE
8
DIM
10
300
20
0
30
0
11
300
21
800
31
0
0
LINE
8
DIM
10
4500
20
0
30
0
11
4500
21
800
31
0
0
LINE
8
DIM
10
300
20
800
30
0
11
4500
21
800
31
0
0
LINE
8
DIM
10
300
20
800
30
0
11
238.6585
21
833.7228
31
0
0
LINE
8
DIM
10
300
20
800
30
0
11
238.6585
21
766.2772
31
0
0
LINE
8
DIM
10
4500
20
800
30
0
11
4561.3415
21
766.2772
31
0
0
LINE
8
DIM
10
4500
20
800
30
0
11
4561.3415
21
833.7228
31
0
0
TEXT
8
DIM
10
2400
20
895
30
0
40
85
1
GENİŞLİK 4200 mm
50
0
7
STANDARD
72
1
73
2
11
2400
21
895
31
0
0
LINE
8
DIM
10
100
20
0
30
0
11
100
21
0
31
0
0
LINE
8
DIM
10
100
20
-4600
30
0
11
100
21
-4600
31
0
0
LINE
8
DIM
10
100
20
0
30
0
11
100
21
-4600
31
0
0
LINE
8
DIM
10
100
20
0
30
0
11
66.2772
21
-61.3415
31
0
0
LINE
8
DIM
10
100
20
0
30
0
11
133.7228
21
-61.3415
31
0
0
LINE
8
DIM
10
100
20
-4600
30
0
11
133.7228
21
-4538.6585
31
0
0
LINE
8
DIM
10
100
20
-4600
30
0
11
66.2772
21
-4538.6585
31
0
0
TEXT
8
DIM
10
-20
20
-2300
30
0
40
85
1
AÇILIM 4600 mm
50
90
7
STANDARD
72
1
73
2
11
-20
21
-2300
31
0
0
TEXT
8
TITLE
10
300
20
1050
30
0
40
110
1
ÜST GÖRÜNÜŞ - PERI01 KOORDİNAT MANTIĞI
50
0
7
STANDARD
0
POLYLINE
8
PROFILE
66
1
70
1
0
VERTEX
8
PROFILE
10
250
20
-5650
30
0
0
VERTEX
8
PROFILE
10
4550
20
-5650
30
0
0
VERTEX
8
PROFILE
10
4550
20
-5515
30
0
0
VERTEX
8
PROFILE
10
250
20
-5515
30
0
0
SEQEND
0
POLYLINE
8
BLOCKREF
66
1
70
1
0
VERTEX
8
BLOCKREF
10
250
20
-5622.5
30
0
0
VERTEX
8
BLOCKREF
10
4550
20
-5622.5
30
0
0
VERTEX
8
BLOCKREF
10
4550
20
-5542.5
30
0
0
VERTEX
8
BLOCKREF
10
250
20
-5542.5
30
0
0
SEQEND
0
LINE
8
BLOCKREF
10
250
20
-5582.5
30
0
11
4550
21
-5582.5
31
0
0
LINE
8
BLOCKREF
10
2400
20
-5622.5
30
0
11
2400
21
-5542.5
31
0
0
TEXT
8
BLOCKREF
10
2400
20
-5644.5
30
0
40
55
1
Oluk Ön
50
0
7
STANDARD
72
1
73
2
11
2400
21
-5644.5
31
0
0
POLYLINE
8
RAY
66
1
70
1
0
VERTEX
8
RAY
10
300
20
-5100
30
0
0
VERTEX
8
RAY
10
380
20
-5100
30
0
0
VERTEX
8
RAY
10
380
20
-5517
30
0
0
VERTEX
8
RAY
10
300
20
-5517
30
0
0
SEQEND
0
POLYLINE
8
BLOCKREF
66
1
70
1
0
VERTEX
8
BLOCKREF
10
285
20
-5552
30
0
0
VERTEX
8
BLOCKREF
10
395
20
-5552
30
0
0
VERTEX
8
BLOCKREF
10
395
20
-5482
30
0
0
VERTEX
8
BLOCKREF
10
285
20
-5482
30
0
0
SEQEND
0
LINE
8
BLOCKREF
10
285
20
-5517
30
0
11
395
21
-5517
31
0
0
LINE
8
BLOCKREF
10
340
20
-5552
30
0
11
340
21
-5482
31
0
0
TEXT
8
BLOCKREF
10
340
20
-5574
30
0
40
28
1
Ray Kafası Ön
50
0
7
STANDARD
72
1
73
2
11
340
21
-5574
31
0
0
POLYLINE
8
RAY
66
1
70
1
0
VERTEX
8
RAY
10
2360
20
-5100
30
0
0
VERTEX
8
RAY
10
2440
20
-5100
30
0
0
VERTEX
8
RAY
10
2440
20
-5517
30
0
0
VERTEX
8
RAY
10
2360
20
-5517
30
0
0
SEQEND
0
POLYLINE
8
BLOCKREF
66
1
70
1
0
VERTEX
8
BLOCKREF
10
2345
20
-5552
30
0
0
VERTEX
8
BLOCKREF
10
2455
20
-5552
30
0
0
VERTEX
8
BLOCKREF
10
2455
20
-5482
30
0
0
VERTEX
8
BLOCKREF
10
2345
20
-5482
30
0
0
SEQEND
0
LINE
8
BLOCKREF
10
2345
20
-5517
30
0
11
2455
21
-5517
31
0
0
LINE
8
BLOCKREF
10
2400
20
-5552
30
0
11
2400
21
-5482
31
0
0
TEXT
8
BLOCKREF
10
2400
20
-5574
30
0
40
28
1
Ray Kafası Ön
50
0
7
STANDARD
72
1
73
2
11
2400
21
-5574
31
0
0
POLYLINE
8
RAY
66
1
70
1
0
VERTEX
8
RAY
10
4420
20
-5100
30
0
0
VERTEX
8
RAY
10
4500
20
-5100
30
0
0
VERTEX
8
RAY
10
4500
20
-5517
30
0
0
VERTEX
8
RAY
10
4420
20
-5517
30
0
0
SEQEND
0
POLYLINE
8
BLOCKREF
66
1
70
1
0
VERTEX
8
BLOCKREF
10
4405
20
-5552
30
0
0
VERTEX
8
BLOCKREF
10
4515
20
-5552
30
0
0
VERTEX
8
BLOCKREF
10
4515
20
-5482
30
0
0
VERTEX
8
BLOCKREF
10
4405
20
-5482
30
0
0
SEQEND
0
LINE
8
BLOCKREF
10
4405
20
-5517
30
0
11
4515
21
-5517
31
0
0
LINE
8
BLOCKREF
10
4460
20
-5552
30
0
11
4460
21
-5482
31
0
0
TEXT
8
BLOCKREF
10
4460
20
-5574
30
0
40
28
1
Ray Kafası Ön
50
0
7
STANDARD
72
1
73
2
11
4460
21
-5574
31
0
0
POLYLINE
8
BLOCKREF
66
1
70
1
0
VERTEX
8
BLOCKREF
10
282.5
20
-5692.5
30
0
0
VERTEX
8
BLOCKREF
10
417.5
20
-5692.5
30
0
0
VERTEX
8
BLOCKREF
10
417.5
20
-5607.5
30
0
0
VERTEX
8
BLOCKREF
10
282.5
20
-5607.5
30
0
0
SEQEND
0
LINE
8
BLOCKREF
10
282.5
20
-5650
30
0
11
417.5
21
-5650
31
0
0
LINE
8
BLOCKREF
10
350
20
-5692.5
30
0
11
350
21
-5607.5
31
0
0
TEXT
8
BLOCKREF
10
350
20
-5714.5
30
0
40
28
1
Dikme Oluk Bağ. Ön
50
0
7
STANDARD
72
1
73
2
11
350
21
-5714.5
31
0
0
POLYLINE
8
POST
66
1
70
1
0
VERTEX
8
POST
10
300
20
-5653
30
0
0
VERTEX
8
POST
10
400
20
-5653
30
0
0
VERTEX
8
POST
10
400
20
-8104
30
0
0
VERTEX
8
POST
10
300
20
-8104
30
0
0
SEQEND
0
POLYLINE
8
BLOCKREF
66
1
70
1
0
VERTEX
8
BLOCKREF
10
287.5
20
-8139
30
0
0
VERTEX
8
BLOCKREF
10
412.5
20
-8139
30
0
0
VERTEX
8
BLOCKREF
10
412.5
20
-8069
30
0
0
VERTEX
8
BLOCKREF
10
287.5
20
-8069
30
0
0
SEQEND
0
LINE
8
BLOCKREF
10
287.5
20
-8104
30
0
11
412.5
21
-8104
31
0
0
LINE
8
BLOCKREF
10
350
20
-8139
30
0
11
350
21
-8069
31
0
0
TEXT
8
BLOCKREF
10
350
20
-8161
30
0
40
28
1
Dikme Alt Bağ.
50
0
7
STANDARD
72
1
73
2
11
350
21
-8161
31
0
0
TEXT
8
TEXT
10
350
20
-6875.5
30
0
40
48
1
D1
50
90
7
STANDARD
72
1
73
2
11
350
21
-6875.5
31
0
0
POLYLINE
8
BLOCKREF
66
1
70
1
0
VERTEX
8
BLOCKREF
10
4382.5
20
-5692.5
30
0
0
VERTEX
8
BLOCKREF
10
4517.5
20
-5692.5
30
0
0
VERTEX
8
BLOCKREF
10
4517.5
20
-5607.5
30
0
0
VERTEX
8
BLOCKREF
10
4382.5
20
-5607.5
30
0
0
SEQEND
0
LINE
8
BLOCKREF
10
4382.5
20
-5650
30
0
11
4517.5
21
-5650
31
0
0
LINE
8
BLOCKREF
10
4450
20
-5692.5
30
0
11
4450
21
-5607.5
31
0
0
TEXT
8
BLOCKREF
10
4450
20
-5714.5
30
0
40
28
1
Dikme Oluk Bağ. Ön
50
0
7
STANDARD
72
1
73
2
11
4450
21
-5714.5
31
0
0
POLYLINE
8
POST
66
1
70
1
0
VERTEX
8
POST
10
4400
20
-5653
30
0
0
VERTEX
8
POST
10
4500
20
-5653
30
0
0
VERTEX
8
POST
10
4500
20
-8104
30
0
0
VERTEX
8
POST
10
4400
20
-8104
30
0
0
SEQEND
0
POLYLINE
8
BLOCKREF
66
1
70
1
0
VERTEX
8
BLOCKREF
10
4387.5
20
-8139
30
0
0
VERTEX
8
BLOCKREF
10
4512.5
20
-8139
30
0
0
VERTEX
8
BLOCKREF
10
4512.5
20
-8069
30
0
0
VERTEX
8
BLOCKREF
10
4387.5
20
-8069
30
0
0
SEQEND
0
LINE
8
BLOCKREF
10
4387.5
20
-8104
30
0
11
4512.5
21
-8104
31
0
0
LINE
8
BLOCKREF
10
4450
20
-8139
30
0
11
4450
21
-8069
31
0
0
TEXT
8
BLOCKREF
10
4450
20
-8161
30
0
40
28
1
Dikme Alt Bağ.
50
0
7
STANDARD
72
1
73
2
11
4450
21
-8161
31
0
0
TEXT
8
TEXT
10
4450
20
-6875.5
30
0
40
48
1
D2
50
90
7
STANDARD
72
1
73
2
11
4450
21
-6875.5
31
0
0
LINE
8
DIM
10
300
20
-8230
30
0
11
300
21
-8500
31
0
0
LINE
8
DIM
10
4500
20
-8230
30
0
11
4500
21
-8500
31
0
0
LINE
8
DIM
10
300
20
-8500
30
0
11
4500
21
-8500
31
0
0
LINE
8
DIM
10
300
20
-8500
30
0
11
238.6585
21
-8466.2772
31
0
0
LINE
8
DIM
10
300
20
-8500
30
0
11
238.6585
21
-8533.7228
31
0
0
LINE
8
DIM
10
4500
20
-8500
30
0
11
4561.3415
21
-8533.7228
31
0
0
LINE
8
DIM
10
4500
20
-8500
30
0
11
4561.3415
21
-8466.2772
31
0
0
TEXT
8
DIM
10
2400
20
-8405
30
0
40
85
1
GENİŞLİK 4200 mm
50
0
7
STANDARD
72
1
73
2
11
2400
21
-8405
31
0
0
LINE
8
DIM
10
200
20
-5650
30
0
11
-60
21
-5650
31
0
0
LINE
8
DIM
10
200
20
-8150
30
0
11
-60
21
-8150
31
0
0
LINE
8
DIM
10
-60
20
-5650
30
0
11
-60
21
-8150
31
0
0
LINE
8
DIM
10
-60
20
-5650
30
0
11
-93.7228
21
-5711.3415
31
0
0
LINE
8
DIM
10
-60
20
-5650
30
0
11
-26.2772
21
-5711.3415
31
0
0
LINE
8
DIM
10
-60
20
-8150
30
0
11
-26.2772
21
-8088.6585
31
0
0
LINE
8
DIM
10
-60
20
-8150
30
0
11
-93.7228
21
-8088.6585
31
0
0
TEXT
8
DIM
10
-180
20
-6900
30
0
40
85
1
ÖN 2500 mm
50
90
7
STANDARD
72
1
73
2
11
-180
21
-6900
31
0
0
TEXT
8
TITLE
10
300
20
-5230
30
0
40
110
1
ÖN / KARŞI GÖRÜNÜŞ
50
0
7
STANDARD
0
POLYLINE
8
POST
66
1
70
1
0
VERTEX
8
POST
10
-1450
20
-5653
30
0
0
VERTEX
8
POST
10
-1550
20
-5653
30
0
0
VERTEX
8
POST
10
-1550
20
-8104
30
0
0
VERTEX
8
POST
10
-1450
20
-8104
30
0
0
SEQEND
0
POLYLINE
8
BLOCKREF
66
1
70
1
0
VERTEX
8
BLOCKREF
10
-1515
20
-5693
30
0
0
VERTEX
8
BLOCKREF
10
-1385
20
-5693
30
0
0
VERTEX
8
BLOCKREF
10
-1385
20
-5613
30
0
0
VERTEX
8
BLOCKREF
10
-1515
20
-5613
30
0
0
SEQEND
0
LINE
8
BLOCKREF
10
-1515
20
-5653
30
0
11
-1385
21
-5653
31
0
0
LINE
8
BLOCKREF
10
-1450
20
-5693
30
0
11
-1450
21
-5613
31
0
0
TEXT
8
BLOCKREF
10
-1450
20
-5715
30
0
40
28
1
Dikme Oluk Bağ. Yan
50
0
7
STANDARD
72
1
73
2
11
-1450
21
-5715
31
0
0
POLYLINE
8
BLOCKREF
66
1
70
1
0
VERTEX
8
BLOCKREF
10
-1560
20
-8139
30
0
0
VERTEX
8
BLOCKREF
10
-1440
20
-8139
30
0
0
VERTEX
8
BLOCKREF
10
-1440
20
-8069
30
0
0
VERTEX
8
BLOCKREF
10
-1560
20
-8069
30
0
0
SEQEND
0
LINE
8
BLOCKREF
10
-1560
20
-8104
30
0
11
-1440
21
-8104
31
0
0
LINE
8
BLOCKREF
10
-1500
20
-8139
30
0
11
-1500
21
-8069
31
0
0
TEXT
8
BLOCKREF
10
-1500
20
-8161
30
0
40
28
1
Dikme Alt Bağ. Yan
50
0
7
STANDARD
72
1
73
2
11
-1500
21
-8161
31
0
0
POLYLINE
8
BLOCKREF
66
1
70
1
0
VERTEX
8
BLOCKREF
10
-1560
20
-5720.5
30
0
0
VERTEX
8
BLOCKREF
10
-1340
20
-5720.5
30
0
0
VERTEX
8
BLOCKREF
10
-1340
20
-5585.5
30
0
0
VERTEX
8
BLOCKREF
10
-1560
20
-5585.5
30
0
0
SEQEND
0
LINE
8
BLOCKREF
10
-1560
20
-5653
30
0
11
-1340
21
-5653
31
0
0
LINE
8
BLOCKREF
10
-1450
20
-5720.5
30
0
11
-1450
21
-5585.5
31
0
0
TEXT
8
BLOCKREF
10
-1450
20
-5742.5
30
0
40
31.4286
1
Oluk Yan Birleşik
50
0
7
STANDARD
72
1
73
2
11
-1450
21
-5742.5
31
0
0
POLYLINE
8
WALL
66
1
70
1
0
VERTEX
8
WALL
10
-6050
20
-8150
30
0
0
VERTEX
8
WALL
10
-6650
20
-8150
30
0
0
VERTEX
8
WALL
10
-6650
20
-5100
30
0
0
VERTEX
8
WALL
10
-6050
20
-5100
30
0
0
SEQEND
0
POLYLINE
8
BLOCKREF
66
1
70
1
0
VERTEX
8
BLOCKREF
10
-6110
20
-5147.5
30
0
0
VERTEX
8
BLOCKREF
10
-5990
20
-5147.5
30
0
0
VERTEX
8
BLOCKREF
10
-5990
20
-5052.5
30
0
0
VERTEX
8
BLOCKREF
10
-6110
20
-5052.5
30
0
0
SEQEND
0
LINE
8
BLOCKREF
10
-6110
20
-5100
30
0
11
-5990
21
-5100
31
0
0
LINE
8
BLOCKREF
10
-6050
20
-5147.5
30
0
11
-6050
21
-5052.5
31
0
0
TEXT
8
BLOCKREF
10
-6050
20
-5169.5
30
0
40
28
1
Ray Duvar Bağ.
50
0
7
STANDARD
72
1
73
2
11
-6050
21
-5169.5
31
0
0
POLYLINE
8
BLOCKREF
66
1
70
1
0
VERTEX
8
BLOCKREF
10
-6045.8583
20
-5273.5099
30
0
0
VERTEX
8
BLOCKREF
10
-5910.8583
20
-5273.5099
30
0
0
VERTEX
8
BLOCKREF
10
-5910.8583
20
-5183.5099
30
0
0
VERTEX
8
BLOCKREF
10
-6045.8583
20
-5183.5099
30
0
0
SEQEND
0
LINE
8
BLOCKREF
10
-6045.8583
20
-5228.5099
30
0
11
-5910.8583
21
-5228.5099
31
0
0
LINE
8
BLOCKREF
10
-5978.3583
20
-5273.5099
30
0
11
-5978.3583
21
-5183.5099
31
0
0
TEXT
8
BLOCKREF
10
-5978.3583
20
-5295.5099
30
0
40
28
1
Ray Arka Mek. Yan
50
0
7
STANDARD
72
1
73
2
11
-5978.3583
21
-5295.5099
31
0
0
POLYLINE
8
RAY
66
1
70
1
0
VERTEX
8
RAY
10
-5793.336
20
-5122.9023
30
0
0
VERTEX
8
RAY
10
-1413.2285
20
-5385.966
30
0
0
VERTEX
8
RAY
10
-1421.082
20
-5516.7304
30
0
0
VERTEX
8
RAY
10
-5801.1895
20
-5253.6666
30
0
0
SEQEND
0
POLYLINE
8
RAY
66
1
70
1
0
VERTEX
8
RAY
10
-5797.2148
20
-5187.4859
30
0
0
VERTEX
8
RAY
10
-1417.1073
20
-5450.5496
30
0
0
VERTEX
8
RAY
10
-1417.7068
20
-5460.5316
30
0
0
VERTEX
8
RAY
10
-5797.8143
20
-5197.4679
30
0
0
SEQEND
0
POLYLINE
8
BLOCKREF
66
1
70
1
0
VERTEX
8
BLOCKREF
10
-1478.2285
20
-5430.966
30
0
0
VERTEX
8
BLOCKREF
10
-1348.2285
20
-5430.966
30
0
0
VERTEX
8
BLOCKREF
10
-1348.2285
20
-5340.966
30
0
0
VERTEX
8
BLOCKREF
10
-1478.2285
20
-5340.966
30
0
0
SEQEND
0
LINE
8
BLOCKREF
10
-1478.2285
20
-5385.966
30
0
11
-1348.2285
21
-5385.966
31
0
0
LINE
8
BLOCKREF
10
-1413.2285
20
-5430.966
30
0
11
-1413.2285
21
-5340.966
31
0
0
TEXT
8
BLOCKREF
10
-1413.2285
20
-5452.966
30
0
40
28
1
Ray Kafası Yan
50
0
7
STANDARD
72
1
73
2
11
-1413.2285
21
-5452.966
31
0
0
POLYLINE
8
FABRIC
66
1
70
1
0
VERTEX
8
FABRIC
10
-5651.4593
20
-5262.6593
30
0
0
VERTEX
8
FABRIC
10
-5481.7651
20
-5272.8509
30
0
0
VERTEX
8
FABRIC
10
-5483.8633
20
-5307.7879
30
0
0
VERTEX
8
FABRIC
10
-5653.5576
20
-5297.5963
30
0
0
SEQEND
0
POLYLINE
8
FABRIC
66
1
70
1
0
VERTEX
8
FABRIC
10
-5131.5064
20
-5293.887
30
0
0
VERTEX
8
FABRIC
10
-4961.8122
20
-5304.0786
30
0
0
VERTEX
8
FABRIC
10
-4963.9105
20
-5339.0156
30
0
0
VERTEX
8
FABRIC
10
-5133.6047
20
-5328.824
30
0
0
SEQEND
0
TEXT
8
TEXT
10
-3603.2822
20
-5114.4341
30
0
40
170
1
3.44°
50
0
7
STANDARD
72
1
73
2
11
-3603.2822
21
-5114.4341
31
0
0
LINE
8
DIM
10
-6050
20
-8400
30
0
11
-6050
21
-8670
31
0
0
LINE
8
DIM
10
-1450
20
-8400
30
0
11
-1450
21
-8670
31
0
0
LINE
8
DIM
10
-6050
20
-8670
30
0
11
-1450
21
-8670
31
0
0
LINE
8
DIM
10
-6050
20
-8670
30
0
11
-6111.3415
21
-8636.2772
31
0
0
LINE
8
DIM
10
-6050
20
-8670
30
0
11
-6111.3415
21
-8703.7228
31
0
0
LINE
8
DIM
10
-1450
20
-8670
30
0
11
-1388.6585
21
-8703.7228
31
0
0
LINE
8
DIM
10
-1450
20
-8670
30
0
11
-1388.6585
21
-8636.2772
31
0
0
TEXT
8
DIM
10
-3750
20
-8575
30
0
40
85
1
AÇILIM 4600 mm
50
0
7
STANDARD
72
1
73
2
11
-3750
21
-8575
31
0
0
LINE
8
DIM
10
-6730
20
-8150
30
0
11
-7010
21
-8150
31
0
0
LINE
8
DIM
10
-6730
20
-5100
30
0
11
-7010
21
-5100
31
0
0
LINE
8
DIM
10
-7010
20
-8150
30
0
11
-7010
21
-5100
31
0
0
LINE
8
DIM
10
-7010
20
-8150
30
0
11
-7043.7228
21
-8211.3415
31
0
0
LINE
8
DIM
10
-7010
20
-8150
30
0
11
-6976.2772
21
-8211.3415
31
0
0
LINE
8
DIM
10
-7010
20
-5100
30
0
11
-6976.2772
21
-5038.6585
31
0
0
LINE
8
DIM
10
-7010
20
-5100
30
0
11
-7043.7228
21
-5038.6585
31
0
0
TEXT
8
DIM
10
-7130
20
-6625
30
0
40
85
1
ARKA 3050 mm
50
90
7
STANDARD
72
1
73
2
11
-7130
21
-6625
31
0
0
LINE
8
DIM
10
-1320
20
-8104
30
0
11
-1030
21
-8104
31
0
0
LINE
8
DIM
10
-1320
20
-5653
30
0
11
-1030
21
-5653
31
0
0
LINE
8
DIM
10
-1030
20
-8104
30
0
11
-1030
21
-5653
31
0
0
LINE
8
DIM
10
-1030
20
-8104
30
0
11
-1063.7228
21
-8165.3415
31
0
0
LINE
8
DIM
10
-1030
20
-8104
30
0
11
-996.2772
21
-8165.3415
31
0
0
LINE
8
DIM
10
-1030
20
-5653
30
0
11
-996.2772
21
-5591.6585
31
0
0
LINE
8
DIM
10
-1030
20
-5653
30
0
11
-1063.7228
21
-5591.6585
31
0
0
TEXT
8
DIM
10
-1150
20
-6878.5
30
0
40
85
1
ÖN 2500 mm
50
90
7
STANDARD
72
1
73
2
11
-1150
21
-6878.5
31
0
0
TEXT
8
TITLE
10
-6050
20
-4250
30
0
40
110
1
YAN GÖRÜNÜŞ
50
0
7
STANDARD
0
TEXT
8
TITLE
10
5700
20
1060
30
0
40
110
1
PROJE / SİSTEM BİLGİLERİ
50
0
7
STANDARD
0
POLYLINE
8
TABLE
66
1
70
1
0
VERTEX
8
TABLE
10
5700
20
800
30
0
0
VERTEX
8
TABLE
10
6900
20
800
30
0
0
VERTEX
8
TABLE
10
6900
20
980
30
0
0
VERTEX
8
TABLE
10
5700
20
980
30
0
0
SEQEND
0
POLYLINE
8
TABLE
66
1
70
1
0
VERTEX
8
TABLE
10
6900
20
800
30
0
0
VERTEX
8
TABLE
10
8700
20
800
30
0
0
VERTEX
8
TABLE
10
8700
20
980
30
0
0
VERTEX
8
TABLE
10
6900
20
980
30
0
0
SEQEND
0
TEXT
8
TEXT
10
5745
20
890
30
0
40
70
1
Müşteri
50
0
7
STANDARD
0
TEXT
8
TEXT
10
6945
20
890
30
0
40
70
1
DENEME MÜŞTERİ
50
0
7
STANDARD
0
POLYLINE
8
TABLE
66
1
70
1
0
VERTEX
8
TABLE
10
5700
20
620
30
0
0
VERTEX
8
TABLE
10
6900
20
620
30
0
0
VERTEX
8
TABLE
10
6900
20
800
30
0
0
VERTEX
8
TABLE
10
5700
20
800
30
0
0
SEQEND
0
POLYLINE
8
TABLE
66
1
70
1
0
VERTEX
8
TABLE
10
6900
20
620
30
0
0
VERTEX
8
TABLE
10
8700
20
620
30
0
0
VERTEX
8
TABLE
10
8700
20
800
30
0
0
VERTEX
8
TABLE
10
6900
20
800
30
0
0
SEQEND
0
TEXT
8
TEXT
10
5745
20
710
30
0
40
70
1
Proje
50
0
7
STANDARD
0
TEXT
8
TEXT
10
6945
20
710
30
0
40
70
1
TEK POZ WEB DXF DENEME
50
0
7
STANDARD
0
POLYLINE
8
TABLE
66
1
70
1
0
VERTEX
8
TABLE
10
5700
20
440
30
0
0
VERTEX
8
TABLE
10
6900
20
440
30
0
0
VERTEX
8
TABLE
10
6900
20
620
30
0
0
VERTEX
8
TABLE
10
5700
20
620
30
0
0
SEQEND
0
POLYLINE
8
TABLE
66
1
70
1
0
VERTEX
8
TABLE
10
6900
20
440
30
0
0
VERTEX
8
TABLE
10
8700
20
440
30
0
0
VERTEX
8
TABLE
10
8700
20
620
30
0
0
VERTEX
8
TABLE
10
6900
20
620
30
0
0
SEQEND
0
TEXT
8
TEXT
10
5745
20
530
30
0
40
70
1
Versiyon
50
0
7
STANDARD
0
TEXT
8
TEXT
10
6945
20
530
30
0
40
70
1
01
50
0
7
STANDARD
0
POLYLINE
8
TABLE
66
1
70
1
0
VERTEX
8
TABLE
10
5700
20
260
30
0
0
VERTEX
8
TABLE
10
6900
20
260
30
0
0
VERTEX
8
TABLE
10
6900
20
440
30
0
0
VERTEX
8
TABLE
10
5700
20
440
30
0
0
SEQEND
0
POLYLINE
8
TABLE
66
1
70
1
0
VERTEX
8
TABLE
10
6900
20
260
30
0
0
VERTEX
8
TABLE
10
8700
20
260
30
0
0
VERTEX
8
TABLE
10
8700
20
440
30
0
0
VERTEX
8
TABLE
10
6900
20
440
30
0
0
SEQEND
0
TEXT
8
TEXT
10
5745
20
350
30
0
40
70
1
Çizen
50
0
7
STANDARD
0
TEXT
8
TEXT
10
6945
20
350
30
0
40
70
1
AYETULLAH KILINC
50
0
7
STANDARD
0
POLYLINE
8
TABLE
66
1
70
1
0
VERTEX
8
TABLE
10
5700
20
80
30
0
0
VERTEX
8
TABLE
10
6900
20
80
30
0
0
VERTEX
8
TABLE
10
6900
20
260
30
0
0
VERTEX
8
TABLE
10
5700
20
260
30
0
0
SEQEND
0
POLYLINE
8
TABLE
66
1
70
1
0
VERTEX
8
TABLE
10
6900
20
80
30
0
0
VERTEX
8
TABLE
10
8700
20
80
30
0
0
VERTEX
8
TABLE
10
8700
20
260
30
0
0
VERTEX
8
TABLE
10
6900
20
260
30
0
0
SEQEND
0
TEXT
8
TEXT
10
5745
20
170
30
0
40
70
1
Tarih
50
0
7
STANDARD
0
TEXT
8
TEXT
10
6945
20
170
30
0
40
70
1
2026-07-06
50
0
7
STANDARD
0
POLYLINE
8
TABLE
66
1
70
1
0
VERTEX
8
TABLE
10
5700
20
-100
30
0
0
VERTEX
8
TABLE
10
6900
20
-100
30
0
0
VERTEX
8
TABLE
10
6900
20
80
30
0
0
VERTEX
8
TABLE
10
5700
20
80
30
0
0
SEQEND
0
POLYLINE
8
TABLE
66
1
70
1
0
VERTEX
8
TABLE
10
6900
20
-100
30
0
0
VERTEX
8
TABLE
10
8700
20
-100
30
0
0
VERTEX
8
TABLE
10
8700
20
80
30
0
0
VERTEX
8
TABLE
10
6900
20
80
30
0
0
SEQEND
0
TEXT
8
TEXT
10
5745
20
-10
30
0
40
70
1
Genişlik
50
0
7
STANDARD
0
TEXT
8
TEXT
10
6945
20
-10
30
0
40
70
1
4200 mm
50
0
7
STANDARD
0
POLYLINE
8
TABLE
66
1
70
1
0
VERTEX
8
TABLE
10
5700
20
-280
30
0
0
VERTEX
8
TABLE
10
6900
20
-280
30
0
0
VERTEX
8
TABLE
10
6900
20
-100
30
0
0
VERTEX
8
TABLE
10
5700
20
-100
30
0
0
SEQEND
0
POLYLINE
8
TABLE
66
1
70
1
0
VERTEX
8
TABLE
10
6900
20
-280
30
0
0
VERTEX
8
TABLE
10
8700
20
-280
30
0
0
VERTEX
8
TABLE
10
8700
20
-100
30
0
0
VERTEX
8
TABLE
10
6900
20
-100
30
0
0
SEQEND
0
TEXT
8
TEXT
10
5745
20
-190
30
0
40
70
1
Açılım
50
0
7
STANDARD
0
TEXT
8
TEXT
10
6945
20
-190
30
0
40
70
1
4600 mm
50
0
7
STANDARD
0
POLYLINE
8
TABLE
66
1
70
1
0
VERTEX
8
TABLE
10
5700
20
-460
30
0
0
VERTEX
8
TABLE
10
6900
20
-460
30
0
0
VERTEX
8
TABLE
10
6900
20
-280
30
0
0
VERTEX
8
TABLE
10
5700
20
-280
30
0
0
SEQEND
0
POLYLINE
8
TABLE
66
1
70
1
0
VERTEX
8
TABLE
10
6900
20
-460
30
0
0
VERTEX
8
TABLE
10
8700
20
-460
30
0
0
VERTEX
8
TABLE
10
8700
20
-280
30
0
0
VERTEX
8
TABLE
10
6900
20
-280
30
0
0
SEQEND
0
TEXT
8
TEXT
10
5745
20
-370
30
0
40
70
1
Arka Yükseklik
50
0
7
STANDARD
0
TEXT
8
TEXT
10
6945
20
-370
30
0
40
70
1
3050 mm
50
0
7
STANDARD
0
POLYLINE
8
TABLE
66
1
70
1
0
VERTEX
8
TABLE
10
5700
20
-640
30
0
0
VERTEX
8
TABLE
10
6900
20
-640
30
0
0
VERTEX
8
TABLE
10
6900
20
-460
30
0
0
VERTEX
8
TABLE
10
5700
20
-460
30
0
0
SEQEND
0
POLYLINE
8
TABLE
66
1
70
1
0
VERTEX
8
TABLE
10
6900
20
-640
30
0
0
VERTEX
8
TABLE
10
8700
20
-640
30
0
0
VERTEX
8
TABLE
10
8700
20
-460
30
0
0
VERTEX
8
TABLE
10
6900
20
-460
30
0
0
SEQEND
0
TEXT
8
TEXT
10
5745
20
-550
30
0
40
70
1
Ön Yükseklik
50
0
7
STANDARD
0
TEXT
8
TEXT
10
6945
20
-550
30
0
40
70
1
2500 mm
50
0
7
STANDARD
0
POLYLINE
8
TABLE
66
1
70
1
0
VERTEX
8
TABLE
10
5700
20
-820
30
0
0
VERTEX
8
TABLE
10
6900
20
-820
30
0
0
VERTEX
8
TABLE
10
6900
20
-640
30
0
0
VERTEX
8
TABLE
10
5700
20
-640
30
0
0
SEQEND
0
POLYLINE
8
TABLE
66
1
70
1
0
VERTEX
8
TABLE
10
6900
20
-820
30
0
0
VERTEX
8
TABLE
10
8700
20
-820
30
0
0
VERTEX
8
TABLE
10
8700
20
-640
30
0
0
VERTEX
8
TABLE
10
6900
20
-640
30
0
0
SEQEND
0
TEXT
8
TEXT
10
5745
20
-730
30
0
40
70
1
Ray Sayısı
50
0
7
STANDARD
0
TEXT
8
TEXT
10
6945
20
-730
30
0
40
70
1
3
50
0
7
STANDARD
0
POLYLINE
8
TABLE
66
1
70
1
0
VERTEX
8
TABLE
10
5700
20
-1000
30
0
0
VERTEX
8
TABLE
10
6900
20
-1000
30
0
0
VERTEX
8
TABLE
10
6900
20
-820
30
0
0
VERTEX
8
TABLE
10
5700
20
-820
30
0
0
SEQEND
0
POLYLINE
8
TABLE
66
1
70
1
0
VERTEX
8
TABLE
10
6900
20
-1000
30
0
0
VERTEX
8
TABLE
10
8700
20
-1000
30
0
0
VERTEX
8
TABLE
10
8700
20
-820
30
0
0
VERTEX
8
TABLE
10
6900
20
-820
30
0
0
SEQEND
0
TEXT
8
TEXT
10
5745
20
-910
30
0
40
70
1
Dikme Sayısı
50
0
7
STANDARD
0
TEXT
8
TEXT
10
6945
20
-910
30
0
40
70
1
2
50
0
7
STANDARD
0
POLYLINE
8
TABLE
66
1
70
1
0
VERTEX
8
TABLE
10
5700
20
-1180
30
0
0
VERTEX
8
TABLE
10
6900
20
-1180
30
0
0
VERTEX
8
TABLE
10
6900
20
-1000
30
0
0
VERTEX
8
TABLE
10
5700
20
-1000
30
0
0
SEQEND
0
POLYLINE
8
TABLE
66
1
70
1
0
VERTEX
8
TABLE
10
6900
20
-1180
30
0
0
VERTEX
8
TABLE
10
8700
20
-1180
30
0
0
VERTEX
8
TABLE
10
8700
20
-1000
30
0
0
VERTEX
8
TABLE
10
6900
20
-1000
30
0
0
SEQEND
0
TEXT
8
TEXT
10
5745
20
-1090
30
0
40
70
1
Parapet
50
0
7
STANDARD
0
TEXT
8
TEXT
10
6945
20
-1090
30
0
40
70
1
HAYIR
50
0
7
STANDARD
0
POLYLINE
8
TABLE
66
1
70
1
0
VERTEX
8
TABLE
10
5700
20
-1360
30
0
0
VERTEX
8
TABLE
10
6900
20
-1360
30
0
0
VERTEX
8
TABLE
10
6900
20
-1180
30
0
0
VERTEX
8
TABLE
10
5700
20
-1180
30
0
0
SEQEND
0
POLYLINE
8
TABLE
66
1
70
1
0
VERTEX
8
TABLE
10
6900
20
-1360
30
0
0
VERTEX
8
TABLE
10
8700
20
-1360
30
0
0
VERTEX
8
TABLE
10
8700
20
-1180
30
0
0
VERTEX
8
TABLE
10
6900
20
-1180
30
0
0
SEQEND
0
TEXT
8
TEXT
10
5745
20
-1270
30
0
40
70
1
Parapet Yüksekliği
50
0
7
STANDARD
0
TEXT
8
TEXT
10
6945
20
-1270
30
0
40
70
1
0 mm
50
0
7
STANDARD
0
POLYLINE
8
TABLE
66
1
70
1
0
VERTEX
8
TABLE
10
5700
20
-1540
30
0
0
VERTEX
8
TABLE
10
6900
20
-1540
30
0
0
VERTEX
8
TABLE
10
6900
20
-1360
30
0
0
VERTEX
8
TABLE
10
5700
20
-1360
30
0
0
SEQEND
0
POLYLINE
8
TABLE
66
1
70
1
0
VERTEX
8
TABLE
10
6900
20
-1540
30
0
0
VERTEX
8
TABLE
10
8700
20
-1540
30
0
0
VERTEX
8
TABLE
10
8700
20
-1360
30
0
0
VERTEX
8
TABLE
10
6900
20
-1360
30
0
0
SEQEND
0
TEXT
8
TEXT
10
5745
20
-1450
30
0
40
70
1
Cam Kaydı
50
0
7
STANDARD
0
TEXT
8
TEXT
10
6945
20
-1450
30
0
40
70
1
HAYIR
50
0
7
STANDARD
0
POLYLINE
8
TABLE
66
1
70
1
0
VERTEX
8
TABLE
10
5700
20
-1720
30
0
0
VERTEX
8
TABLE
10
6900
20
-1720
30
0
0
VERTEX
8
TABLE
10
6900
20
-1540
30
0
0
VERTEX
8
TABLE
10
5700
20
-1540
30
0
0
SEQEND
0
POLYLINE
8
TABLE
66
1
70
1
0
VERTEX
8
TABLE
10
6900
20
-1720
30
0
0
VERTEX
8
TABLE
10
8700
20
-1720
30
0
0
VERTEX
8
TABLE
10
8700
20
-1540
30
0
0
VERTEX
8
TABLE
10
6900
20
-1540
30
0
0
SEQEND
0
TEXT
8
TEXT
10
5745
20
-1630
30
0
40
70
1
Üçgen Doğrama
50
0
7
STANDARD
0
TEXT
8
TEXT
10
6945
20
-1630
30
0
40
70
1
HAYIR
50
0
7
STANDARD
0
POLYLINE
8
TABLE
66
1
70
1
0
VERTEX
8
TABLE
10
5700
20
-1900
30
0
0
VERTEX
8
TABLE
10
6900
20
-1900
30
0
0
VERTEX
8
TABLE
10
6900
20
-1720
30
0
0
VERTEX
8
TABLE
10
5700
20
-1720
30
0
0
SEQEND
0
POLYLINE
8
TABLE
66
1
70
1
0
VERTEX
8
TABLE
10
6900
20
-1900
30
0
0
VERTEX
8
TABLE
10
8700
20
-1900
30
0
0
VERTEX
8
TABLE
10
8700
20
-1720
30
0
0
VERTEX
8
TABLE
10
6900
20
-1720
30
0
0
SEQEND
0
TEXT
8
TEXT
10
5745
20
-1810
30
0
40
70
1
Su Çıkışı Standart
50
0
7
STANDARD
0
TEXT
8
TEXT
10
6945
20
-1810
30
0
40
70
1
EVET
50
0
7
STANDARD
0
POLYLINE
8
TABLE
66
1
70
1
0
VERTEX
8
TABLE
10
5700
20
-2080
30
0
0
VERTEX
8
TABLE
10
6900
20
-2080
30
0
0
VERTEX
8
TABLE
10
6900
20
-1900
30
0
0
VERTEX
8
TABLE
10
5700
20
-1900
30
0
0
SEQEND
0
POLYLINE
8
TABLE
66
1
70
1
0
VERTEX
8
TABLE
10
6900
20
-2080
30
0
0
VERTEX
8
TABLE
10
8700
20
-2080
30
0
0
VERTEX
8
TABLE
10
8700
20
-1900
30
0
0
VERTEX
8
TABLE
10
6900
20
-1900
30
0
0
SEQEND
0
TEXT
8
TEXT
10
5745
20
-1990
30
0
40
70
1
Structure Color
50
0
7
STANDARD
0
TEXT
8
TEXT
10
6945
20
-1990
30
0
40
70
1
-
50
0
7
STANDARD
0
POLYLINE
8
TABLE
66
1
70
1
0
VERTEX
8
TABLE
10
5700
20
-2260
30
0
0
VERTEX
8
TABLE
10
6900
20
-2260
30
0
0
VERTEX
8
TABLE
10
6900
20
-2080
30
0
0
VERTEX
8
TABLE
10
5700
20
-2080
30
0
0
SEQEND
0
POLYLINE
8
TABLE
66
1
70
1
0
VERTEX
8
TABLE
10
6900
20
-2260
30
0
0
VERTEX
8
TABLE
10
8700
20
-2260
30
0
0
VERTEX
8
TABLE
10
8700
20
-2080
30
0
0
VERTEX
8
TABLE
10
6900
20
-2080
30
0
0
SEQEND
0
TEXT
8
TEXT
10
5745
20
-2170
30
0
40
70
1
Fabric
50
0
7
STANDARD
0
TEXT
8
TEXT
10
6945
20
-2170
30
0
40
70
1
-
50
0
7
STANDARD
0
POLYLINE
8
TABLE
66
1
70
1
0
VERTEX
8
TABLE
10
5700
20
-2440
30
0
0
VERTEX
8
TABLE
10
6900
20
-2440
30
0
0
VERTEX
8
TABLE
10
6900
20
-2260
30
0
0
VERTEX
8
TABLE
10
5700
20
-2260
30
0
0
SEQEND
0
POLYLINE
8
TABLE
66
1
70
1
0
VERTEX
8
TABLE
10
6900
20
-2440
30
0
0
VERTEX
8
TABLE
10
8700
20
-2440
30
0
0
VERTEX
8
TABLE
10
8700
20
-2260
30
0
0
VERTEX
8
TABLE
10
6900
20
-2260
30
0
0
SEQEND
0
TEXT
8
TEXT
10
5745
20
-2350
30
0
40
70
1
Fabric Profiles
50
0
7
STANDARD
0
TEXT
8
TEXT
10
6945
20
-2350
30
0
40
70
1
-
50
0
7
STANDARD
0
POLYLINE
8
TABLE
66
1
70
1
0
VERTEX
8
TABLE
10
5700
20
-2620
30
0
0
VERTEX
8
TABLE
10
6900
20
-2620
30
0
0
VERTEX
8
TABLE
10
6900
20
-2440
30
0
0
VERTEX
8
TABLE
10
5700
20
-2440
30
0
0
SEQEND
0
POLYLINE
8
TABLE
66
1
70
1
0
VERTEX
8
TABLE
10
6900
20
-2620
30
0
0
VERTEX
8
TABLE
10
8700
20
-2620
30
0
0
VERTEX
8
TABLE
10
8700
20
-2440
30
0
0
VERTEX
8
TABLE
10
6900
20
-2440
30
0
0
SEQEND
0
TEXT
8
TEXT
10
5745
20
-2530
30
0
40
70
1
Motor
50
0
7
STANDARD
0
TEXT
8
TEXT
10
6945
20
-2530
30
0
40
70
1
-
50
0
7
STANDARD
0
POLYLINE
8
TABLE
66
1
70
1
0
VERTEX
8
TABLE
10
5700
20
-2800
30
0
0
VERTEX
8
TABLE
10
6900
20
-2800
30
0
0
VERTEX
8
TABLE
10
6900
20
-2620
30
0
0
VERTEX
8
TABLE
10
5700
20
-2620
30
0
0
SEQEND
0
POLYLINE
8
TABLE
66
1
70
1
0
VERTEX
8
TABLE
10
6900
20
-2800
30
0
0
VERTEX
8
TABLE
10
8700
20
-2800
30
0
0
VERTEX
8
TABLE
10
8700
20
-2620
30
0
0
VERTEX
8
TABLE
10
6900
20
-2620
30
0
0
SEQEND
0
TEXT
8
TEXT
10
5745
20
-2710
30
0
40
70
1
Remote
50
0
7
STANDARD
0
TEXT
8
TEXT
10
6945
20
-2710
30
0
40
70
1
-
50
0
7
STANDARD
0
POLYLINE
8
TABLE
66
1
70
1
0
VERTEX
8
TABLE
10
5700
20
-2980
30
0
0
VERTEX
8
TABLE
10
6900
20
-2980
30
0
0
VERTEX
8
TABLE
10
6900
20
-2800
30
0
0
VERTEX
8
TABLE
10
5700
20
-2800
30
0
0
SEQEND
0
POLYLINE
8
TABLE
66
1
70
1
0
VERTEX
8
TABLE
10
6900
20
-2980
30
0
0
VERTEX
8
TABLE
10
8700
20
-2980
30
0
0
VERTEX
8
TABLE
10
8700
20
-2800
30
0
0
VERTEX
8
TABLE
10
6900
20
-2800
30
0
0
SEQEND
0
TEXT
8
TEXT
10
5745
20
-2890
30
0
40
70
1
LED
50
0
7
STANDARD
0
TEXT
8
TEXT
10
6945
20
-2890
30
0
40
70
1
-
50
0
7
STANDARD
0
POLYLINE
8
TABLE
66
1
70
1
0
VERTEX
8
TABLE
10
5700
20
-3160
30
0
0
VERTEX
8
TABLE
10
6900
20
-3160
30
0
0
VERTEX
8
TABLE
10
6900
20
-2980
30
0
0
VERTEX
8
TABLE
10
5700
20
-2980
30
0
0
SEQEND
0
POLYLINE
8
TABLE
66
1
70
1
0
VERTEX
8
TABLE
10
6900
20
-3160
30
0
0
VERTEX
8
TABLE
10
8700
20
-3160
30
0
0
VERTEX
8
TABLE
10
8700
20
-2980
30
0
0
VERTEX
8
TABLE
10
6900
20
-2980
30
0
0
SEQEND
0
TEXT
8
TEXT
10
5745
20
-3070
30
0
40
70
1
Dimmer
50
0
7
STANDARD
0
TEXT
8
TEXT
10
6945
20
-3070
30
0
40
70
1
-
50
0
7
STANDARD
0
POLYLINE
8
TABLE
66
1
70
1
0
VERTEX
8
TABLE
10
5700
20
-3340
30
0
0
VERTEX
8
TABLE
10
6900
20
-3340
30
0
0
VERTEX
8
TABLE
10
6900
20
-3160
30
0
0
VERTEX
8
TABLE
10
5700
20
-3160
30
0
0
SEQEND
0
POLYLINE
8
TABLE
66
1
70
1
0
VERTEX
8
TABLE
10
6900
20
-3340
30
0
0
VERTEX
8
TABLE
10
8700
20
-3340
30
0
0
VERTEX
8
TABLE
10
8700
20
-3160
30
0
0
VERTEX
8
TABLE
10
6900
20
-3160
30
0
0
SEQEND
0
TEXT
8
TEXT
10
5745
20
-3250
30
0
40
70
1
Extras / Notes
50
0
7
STANDARD
0
TEXT
8
TEXT
10
6945
20
-3250
30
0
40
70
1
-
50
0
7
STANDARD
0
POLYLINE
8
TITLE
66
1
70
1
0
VERTEX
8
TITLE
10
300
20
-9250
30
0
0
VERTEX
8
TITLE
10
5500
20
-9250
30
0
0
VERTEX
8
TITLE
10
5500
20
-8830
30
0
0
VERTEX
8
TITLE
10
300
20
-8830
30
0
0
SEQEND
0
POLYLINE
8
PROFILE
66
1
70
1
0
VERTEX
8
PROFILE
10
300
20
-9250
30
0
0
VERTEX
8
PROFILE
10
1230
20
-9250
30
0
0
VERTEX
8
PROFILE
10
1230
20
-8830
30
0
0
VERTEX
8
PROFILE
10
300
20
-8830
30
0
0
SEQEND
0
TEXT
8
TITLE
10
765
20
-9040
30
0
40
180
1
PLMR
50
0
7
STANDARD
72
1
73
2
11
765
21
-9040
31
0
0
TEXT
8
TITLE
10
1400
20
-9000
30
0
40
85
1
Pülümür Automation Studio | Parametrik Çizim ve Proje Otomasyonu
50
0
7
STANDARD
0
TEXT
8
TEXT
10
1400
20
-9130
30
0
40
70
1
Ürün: Pergo Rise | Modül: Module 1 | Motor: Web DXF
50
0
7
STANDARD
0
ENDSEC
0
EOF