0
SECTION
2
HEADER
9
$ACADVER
1
AC1009
9
$DWGCODEPAGE
3
ANSI_1254
9
$INSUNITS
70
4
0
ENDSEC
0
SECTION
2
TABLES
0
TABLE
2
LAYER
70
12
0
LAYER
2
OUTLINE
70
0
62
7
6
CONTINUOUS
0
LAYER
2
PROFILE
70
0
62
3
6
CONTINUOUS
0
LAYER
2
FABRIC
70
0
62
2
6
CONTINUOUS
0
LAYER
2
RAY
70
0
62
5
6
CONTINUOUS
0
LAYER
2
POST
70
0
62
30
6
CONTINUOUS
0
LAYER
2
WALL
70
0
62
8
6
CONTINUOUS
0
LAYER
2
GLASS
70
0
62
4
6
CONTINUOUS
0
LAYER
2
WATER
70
0
62
160
6
CONTINUOUS
0
LAYER
2
DIM
70
0
62
1
6
CONTINUOUS
0
LAYER
2
TEXT
70
0
62
7
6
CONTINUOUS
0
LAYER
2
TABLE
70
0
62
7
6
CONTINUOUS
0
LAYER
2
TITLE
70
0
62
7
6
CONTINUOUS
0
ENDTAB
0
ENDSEC
0
SECTION
2
ENTITIES
0
TEXT
8
TITLE
10
600
20
10420
30
0
40
130
1
ÜST GÖRÜNÜŞ
50
0
7
STANDARD
0
POLYLINE
8
OUTLINE
66
1
70
1
0
VERTEX
8
OUTLINE
10
600
20
5200
30
0
0
VERTEX
8
OUTLINE
10
4800
20
5200
30
0
0
VERTEX
8
OUTLINE
10
4800
20
9800
30
0
0
VERTEX
8
OUTLINE
10
600
20
9800
30
0
0
SEQEND
0
POLYLINE
8
PROFILE
66
1
70
1
0
VERTEX
8
PROFILE
10
600
20
5020
30
0
0
VERTEX
8
PROFILE
10
4800
20
5020
30
0
0
VERTEX
8
PROFILE
10
4800
20
5200
30
0
0
VERTEX
8
PROFILE
10
600
20
5200
30
0
0
SEQEND
0
TEXT
8
TEXT
10
2700
20
5110
30
0
40
80
1
OLUK
50
0
7
STANDARD
72
1
73
2
11
2700
21
5110
31
0
0
POLYLINE
8
WALL
66
1
70
1
0
VERTEX
8
WALL
10
420
20
9840
30
0
0
VERTEX
8
WALL
10
4980
20
9840
30
0
0
VERTEX
8
WALL
10
4980
20
10020
30
0
0
VERTEX
8
WALL
10
420
20
10020
30
0
0
SEQEND
0
TEXT
8
TEXT
10
2700
20
9930
30
0
40
70
1
DUVAR / ARKA BAĞLANTI
50
0
7
STANDARD
72
1
73
2
11
2700
21
9930
31
0
0
LINE
8
FABRIC
10
600
20
9380
30
0
11
1020
21
5620
31
0
0
LINE
8
FABRIC
10
600
20
8960
30
0
11
1440
21
6040
31
0
0
LINE
8
FABRIC
10
600
20
8540
30
0
11
1860
21
6460
31
0
0
LINE
8
FABRIC
10
600
20
8120
30
0
11
2280
21
6880
31
0
0
LINE
8
FABRIC
10
600
20
7700
30
0
11
2700
21
7300
31
0
0
LINE
8
FABRIC
10
600
20
7280
30
0
11
3120
21
7720
31
0
0
LINE
8
FABRIC
10
600
20
6860
30
0
11
3540
21
8140
31
0
0
LINE
8
FABRIC
10
600
20
6440
30
0
11
3960
21
8560
31
0
0
LINE
8
FABRIC
10
600
20
6020
30
0
11
4380
21
8980
31
0
0
LINE
8
FABRIC
10
600
20
5600
30
0
11
4800
21
9400
31
0
0
LINE
8
FABRIC
10
620
20
5200
30
0
11
4800
21
9800
31
0
0
LINE
8
FABRIC
10
1040
20
5200
30
0
11
4800
21
9800
31
0
0
LINE
8
FABRIC
10
1460
20
5200
30
0
11
4800
21
9800
31
0
0
LINE
8
FABRIC
10
1880
20
5200
30
0
11
4800
21
9800
31
0
0
LINE
8
FABRIC
10
2300
20
5200
30
0
11
4800
21
9800
31
0
0
LINE
8
FABRIC
10
2720
20
5200
30
0
11
4800
21
9800
31
0
0
LINE
8
FABRIC
10
3140
20
5200
30
0
11
4800
21
9800
31
0
0
LINE
8
FABRIC
10
3560
20
5200
30
0
11
4800
21
9800
31
0
0
LINE
8
FABRIC
10
3980
20
5200
30
0
11
4800
21
9800
31
0
0
LINE
8
FABRIC
10
4400
20
5200
30
0
11
4800
21
9800
31
0
0
POLYLINE
8
RAY
66
1
70
1
0
VERTEX
8
RAY
10
600
20
5200
30
0
0
VERTEX
8
RAY
10
680
20
5200
30
0
0
VERTEX
8
RAY
10
680
20
9800
30
0
0
VERTEX
8
RAY
10
600
20
9800
30
0
0
SEQEND
0
POLYLINE
8
RAY
66
1
70
1
0
VERTEX
8
RAY
10
600
20
5020
30
0
0
VERTEX
8
RAY
10
680
20
5020
30
0
0
VERTEX
8
RAY
10
680
20
5200
30
0
0
VERTEX
8
RAY
10
600
20
5200
30
0
0
SEQEND
0
TEXT
8
TEXT
10
640
20
7500
30
0
40
65
1
R1
50
90
7
STANDARD
72
1
73
2
11
640
21
7500
31
0
0
POLYLINE
8
RAY
66
1
70
1
0
VERTEX
8
RAY
10
2660
20
5200
30
0
0
VERTEX
8
RAY
10
2740
20
5200
30
0
0
VERTEX
8
RAY
10
2740
20
9800
30
0
0
VERTEX
8
RAY
10
2660
20
9800
30
0
0
SEQEND
0
POLYLINE
8
RAY
66
1
70
1
0
VERTEX
8
RAY
10
2660
20
5020
30
0
0
VERTEX
8
RAY
10
2740
20
5020
30
0
0
VERTEX
8
RAY
10
2740
20
5200
30
0
0
VERTEX
8
RAY
10
2660
20
5200
30
0
0
SEQEND
0
TEXT
8
TEXT
10
2700
20
7500
30
0
40
65
1
R2
50
90
7
STANDARD
72
1
73
2
11
2700
21
7500
31
0
0
POLYLINE
8
RAY
66
1
70
1
0
VERTEX
8
RAY
10
4720
20
5200
30
0
0
VERTEX
8
RAY
10
4800
20
5200
30
0
0
VERTEX
8
RAY
10
4800
20
9800
30
0
0
VERTEX
8
RAY
10
4720
20
9800
30
0
0
SEQEND
0
POLYLINE
8
RAY
66
1
70
1
0
VERTEX
8
RAY
10
4720
20
5020
30
0
0
VERTEX
8
RAY
10
4800
20
5020
30
0
0
VERTEX
8
RAY
10
4800
20
5200
30
0
0
VERTEX
8
RAY
10
4720
20
5200
30
0
0
SEQEND
0
TEXT
8
TEXT
10
4760
20
7500
30
0
40
65
1
R3
50
90
7
STANDARD
72
1
73
2
11
4760
21
7500
31
0
0
POLYLINE
8
POST
66
1
70
1
0
VERTEX
8
POST
10
620
20
4850
30
0
0
VERTEX
8
POST
10
740
20
4850
30
0
0
VERTEX
8
POST
10
740
20
4970
30
0
0
VERTEX
8
POST
10
620
20
4970
30
0
0
SEQEND
0
TEXT
8
TEXT
10
680
20
4910
30
0
40
60
1
D1
50
0
7
STANDARD
72
1
73
2
11
680
21
4910
31
0
0
POLYLINE
8
POST
66
1
70
1
0
VERTEX
8
POST
10
4660
20
4850
30
0
0
VERTEX
8
POST
10
4780
20
4850
30
0
0
VERTEX
8
POST
10
4780
20
4970
30
0
0
VERTEX
8
POST
10
4660
20
4970
30
0
0
SEQEND
0
TEXT
8
TEXT
10
4720
20
4910
30
0
40
60
1
D2
50
0
7
STANDARD
72
1
73
2
11
4720
21
4910
31
0
0
LINE
8
DIM
10
600
20
5000
30
0
11
600
21
4600
31
0
0
LINE
8
DIM
10
4800
20
5000
30
0
11
4800
21
4600
31
0
0
LINE
8
DIM
10
600
20
4600
30
0
11
4800
21
4600
31
0
0
LINE
8
DIM
10
600
20
4600
30
0
11
538.6585
21
4633.7228
31
0
0
LINE
8
DIM
10
600
20
4600
30
0
11
538.6585
21
4566.2772
31
0
0
LINE
8
DIM
10
4800
20
4600
30
0
11
4861.3415
21
4566.2772
31
0
0
LINE
8
DIM
10
4800
20
4600
30
0
11
4861.3415
21
4633.7228
31
0
0
TEXT
8
DIM
10
2700
20
4695
30
0
40
85
1
GENİŞLİK 4200 mm
50
0
7
STANDARD
72
1
73
2
11
2700
21
4695
31
0
0
LINE
8
DIM
10
4830
20
5200
30
0
11
5190
21
5200
31
0
0
LINE
8
DIM
10
4830
20
9800
30
0
11
5190
21
9800
31
0
0
LINE
8
DIM
10
5190
20
5200
30
0
11
5190
21
9800
31
0
0
LINE
8
DIM
10
5190
20
5200
30
0
11
5156.2772
21
5138.6585
31
0
0
LINE
8
DIM
10
5190
20
5200
30
0
11
5223.7228
21
5138.6585
31
0
0
LINE
8
DIM
10
5190
20
9800
30
0
11
5223.7228
21
9861.3415
31
0
0
LINE
8
DIM
10
5190
20
9800
30
0
11
5156.2772
21
9861.3415
31
0
0
TEXT
8
DIM
10
5070
20
7500
30
0
40
85
1
AÇILIM 4600 mm
50
90
7
STANDARD
72
1
73
2
11
5070
21
7500
31
0
0
TEXT
8
TITLE
10
600
20
4120
30
0
40
130
1
ÖN / KARŞI GÖRÜNÜŞ
50
0
7
STANDARD
0
LINE
8
WALL
10
420
20
1000
30
0
11
4980
21
1000
31
0
0
POLYLINE
8
POST
66
1
70
1
0
VERTEX
8
POST
10
620
20
1000
30
0
0
VERTEX
8
POST
10
740
20
1000
30
0
0
VERTEX
8
POST
10
740
20
3500
30
0
0
VERTEX
8
POST
10
620
20
3500
30
0
0
SEQEND
0
TEXT
8
TEXT
10
680
20
2250
30
0
40
60
1
D1
50
90
7
STANDARD
72
1
73
2
11
680
21
2250
31
0
0
POLYLINE
8
POST
66
1
70
1
0
VERTEX
8
POST
10
4660
20
1000
30
0
0
VERTEX
8
POST
10
4780
20
1000
30
0
0
VERTEX
8
POST
10
4780
20
3500
30
0
0
VERTEX
8
POST
10
4660
20
3500
30
0
0
SEQEND
0
TEXT
8
TEXT
10
4720
20
2250
30
0
40
60
1
D2
50
90
7
STANDARD
72
1
73
2
11
4720
21
2250
31
0
0
POLYLINE
8
PROFILE
66
1
70
1
0
VERTEX
8
PROFILE
10
600
20
3500
30
0
0
VERTEX
8
PROFILE
10
4800
20
3500
30
0
0
VERTEX
8
PROFILE
10
4800
20
3680
30
0
0
VERTEX
8
PROFILE
10
600
20
3680
30
0
0
SEQEND
0
TEXT
8
TEXT
10
2700
20
3590
30
0
40
70
1
OLUK ÖN GÖRÜNÜŞ
50
0
7
STANDARD
72
1
73
2
11
2700
21
3590
31
0
0
POLYLINE
8
RAY
66
1
70
1
0
VERTEX
8
RAY
10
600
20
3680
30
0
0
VERTEX
8
RAY
10
680
20
3680
30
0
0
VERTEX
8
RAY
10
680
20
3800
30
0
0
VERTEX
8
RAY
10
600
20
3800
30
0
0
SEQEND
0
TEXT
8
TEXT
10
640
20
3850
30
0
40
55
1
R1
50
0
7
STANDARD
72
1
73
2
11
640
21
3850
31
0
0
POLYLINE
8
RAY
66
1
70
1
0
VERTEX
8
RAY
10
2660
20
3680
30
0
0
VERTEX
8
RAY
10
2740
20
3680
30
0
0
VERTEX
8
RAY
10
2740
20
3800
30
0
0
VERTEX
8
RAY
10
2660
20
3800
30
0
0
SEQEND
0
TEXT
8
TEXT
10
2700
20
3850
30
0
40
55
1
R2
50
0
7
STANDARD
72
1
73
2
11
2700
21
3850
31
0
0
POLYLINE
8
RAY
66
1
70
1
0
VERTEX
8
RAY
10
4720
20
3680
30
0
0
VERTEX
8
RAY
10
4800
20
3680
30
0
0
VERTEX
8
RAY
10
4800
20
3800
30
0
0
VERTEX
8
RAY
10
4720
20
3800
30
0
0
SEQEND
0
TEXT
8
TEXT
10
4760
20
3850
30
0
40
55
1
R3
50
0
7
STANDARD
72
1
73
2
11
4760
21
3850
31
0
0
LINE
8
DIM
10
600
20
880
30
0
11
600
21
620
31
0
0
LINE
8
DIM
10
4800
20
880
30
0
11
4800
21
620
31
0
0
LINE
8
DIM
10
600
20
620
30
0
11
4800
21
620
31
0
0
LINE
8
DIM
10
600
20
620
30
0
11
538.6585
21
653.7228
31
0
0
LINE
8
DIM
10
600
20
620
30
0
11
538.6585
21
586.2772
31
0
0
LINE
8
DIM
10
4800
20
620
30
0
11
4861.3415
21
586.2772
31
0
0
LINE
8
DIM
10
4800
20
620
30
0
11
4861.3415
21
653.7228
31
0
0
TEXT
8
DIM
10
2700
20
715
30
0
40
85
1
GENİŞLİK 4200 mm
50
0
7
STANDARD
72
1
73
2
11
2700
21
715
31
0
0
LINE
8
DIM
10
540
20
1000
30
0
11
240
21
1000
31
0
0
LINE
8
DIM
10
540
20
3500
30
0
11
240
21
3500
31
0
0
LINE
8
DIM
10
240
20
1000
30
0
11
240
21
3500
31
0
0
LINE
8
DIM
10
240
20
1000
30
0
11
206.2772
21
938.6585
31
0
0
LINE
8
DIM
10
240
20
1000
30
0
11
273.7228
21
938.6585
31
0
0
LINE
8
DIM
10
240
20
3500
30
0
11
273.7228
21
3561.3415
31
0
0
LINE
8
DIM
10
240
20
3500
30
0
11
206.2772
21
3561.3415
31
0
0
TEXT
8
DIM
10
120
20
2250
30
0
40
85
1
ÖN YÜKSEKLİK 2500 mm
50
90
7
STANDARD
72
1
73
2
11
120
21
2250
31
0
0
TEXT
8
TITLE
10
6200
20
4870
30
0
40
130
1
YAN GÖRÜNÜŞ
50
0
7
STANDARD
0
LINE
8
WALL
10
6040
20
1000
30
0
11
11380
21
1000
31
0
0
POLYLINE
8
POST
66
1
70
1
0
VERTEX
8
POST
10
6140
20
1000
30
0
0
VERTEX
8
POST
10
6260
20
1000
30
0
0
VERTEX
8
POST
10
6260
20
3500
30
0
0
VERTEX
8
POST
10
6140
20
3500
30
0
0
SEQEND
0
POLYLINE
8
RAY
66
1
70
1
0
VERTEX
8
RAY
10
6200
20
3500
30
0
0
VERTEX
8
RAY
10
10800
20
4050
30
0
0
VERTEX
8
RAY
10
10789.3152
20
4139.3635
30
0
0
VERTEX
8
RAY
10
6189.3152
20
3589.3635
30
0
0
SEQEND
0
POLYLINE
8
PROFILE
66
1
70
1
0
VERTEX
8
PROFILE
10
6070
20
3360
30
0
0
VERTEX
8
PROFILE
10
6330
20
3360
30
0
0
VERTEX
8
PROFILE
10
6330
20
3540
30
0
0
VERTEX
8
PROFILE
10
6070
20
3540
30
0
0
SEQEND
0
POLYLINE
8
WALL
66
1
70
1
0
VERTEX
8
WALL
10
10860
20
1000
30
0
0
VERTEX
8
WALL
10
11100
20
1000
30
0
0
VERTEX
8
WALL
10
11100
20
4050
30
0
0
VERTEX
8
WALL
10
10860
20
4050
30
0
0
SEQEND
0
TEXT
8
TEXT
10
10980
20
2525
30
0
40
60
1
DUVAR
50
90
7
STANDARD
72
1
73
2
11
10980
21
2525
31
0
0
LINE
8
DIM
10
6200
20
880
30
0
11
6200
21
570
31
0
0
LINE
8
DIM
10
10800
20
880
30
0
11
10800
21
570
31
0
0
LINE
8
DIM
10
6200
20
570
30
0
11
10800
21
570
31
0
0
LINE
8
DIM
10
6200
20
570
30
0
11
6138.6585
21
603.7228
31
0
0
LINE
8
DIM
10
6200
20
570
30
0
11
6138.6585
21
536.2772
31
0
0
LINE
8
DIM
10
10800
20
570
30
0
11
10861.3415
21
536.2772
31
0
0
LINE
8
DIM
10
10800
20
570
30
0
11
10861.3415
21
603.7228
31
0
0
TEXT
8
DIM
10
8500
20
665
30
0
40
85
1
AÇILIM 4600 mm
50
0
7
STANDARD
72
1
73
2
11
8500
21
665
31
0
0
LINE
8
DIM
10
6120
20
1000
30
0
11
5820
21
1000
31
0
0
LINE
8
DIM
10
6120
20
3500
30
0
11
5820
21
3500
31
0
0
LINE
8
DIM
10
5820
20
1000
30
0
11
5820
21
3500
31
0
0
LINE
8
DIM
10
5820
20
1000
30
0
11
5786.2772
21
938.6585
31
0
0
LINE
8
DIM
10
5820
20
1000
30
0
11
5853.7228
21
938.6585
31
0
0
LINE
8
DIM
10
5820
20
3500
30
0
11
5853.7228
21
3561.3415
31
0
0
LINE
8
DIM
10
5820
20
3500
30
0
11
5786.2772
21
3561.3415
31
0
0
TEXT
8
DIM
10
5700
20
2250
30
0
40
85
1
ÖN 2500 mm
50
90
7
STANDARD
72
1
73
2
11
5700
21
2250
31
0
0
LINE
8
DIM
10
10860
20
1000
30
0
11
11320
21
1000
31
0
0
LINE
8
DIM
10
10860
20
4050
30
0
11
11320
21
4050
31
0
0
LINE
8
DIM
10
11320
20
1000
30
0
11
11320
21
4050
31
0
0
LINE
8
DIM
10
11320
20
1000
30
0
11
11286.2772
21
938.6585
31
0
0
LINE
8
DIM
10
11320
20
1000
30
0
11
11353.7228
21
938.6585
31
0
0
LINE
8
DIM
10
11320
20
4050
30
0
11
11353.7228
21
4111.3415
31
0
0
LINE
8
DIM
10
11320
20
4050
30
0
11
11286.2772
21
4111.3415
31
0
0
TEXT
8
DIM
10
11200
20
2525
30
0
40
85
1
ARKA 3050 mm
50
90
7
STANDARD
72
1
73
2
11
11200
21
2525
31
0
0
TEXT
8
TEXT
10
8500
20
4300
30
0
40
85
1
SİSTEM AÇISI 6.82°
50
0
7
STANDARD
72
1
73
2
11
8500
21
4300
31
0
0
TEXT
8
TITLE
10
6200
20
10830
30
0
40
120
1
PROJE BİLGİ TABLOSU
50
0
7
STANDARD
0
POLYLINE
8
TABLE
66
1
70
1
0
VERTEX
8
TABLE
10
6200
20
10500
30
0
0
VERTEX
8
TABLE
10
6820
20
10500
30
0
0
VERTEX
8
TABLE
10
6820
20
10710
30
0
0
VERTEX
8
TABLE
10
6200
20
10710
30
0
0
SEQEND
0
POLYLINE
8
TABLE
66
1
70
1
0
VERTEX
8
TABLE
10
6820
20
10500
30
0
0
VERTEX
8
TABLE
10
8000
20
10500
30
0
0
VERTEX
8
TABLE
10
8000
20
10710
30
0
0
VERTEX
8
TABLE
10
6820
20
10710
30
0
0
SEQEND
0
TEXT
8
TEXT
10
6240
20
10605
30
0
40
70
1
Müşteri
50
0
7
STANDARD
0
TEXT
8
TEXT
10
6860
20
10605
30
0
40
70
1
DENEME MÜŞTERİ
50
0
7
STANDARD
0
POLYLINE
8
TABLE
66
1
70
1
0
VERTEX
8
TABLE
10
6200
20
10290
30
0
0
VERTEX
8
TABLE
10
6820
20
10290
30
0
0
VERTEX
8
TABLE
10
6820
20
10500
30
0
0
VERTEX
8
TABLE
10
6200
20
10500
30
0
0
SEQEND
0
POLYLINE
8
TABLE
66
1
70
1
0
VERTEX
8
TABLE
10
6820
20
10290
30
0
0
VERTEX
8
TABLE
10
8000
20
10290
30
0
0
VERTEX
8
TABLE
10
8000
20
10500
30
0
0
VERTEX
8
TABLE
10
6820
20
10500
30
0
0
SEQEND
0
TEXT
8
TEXT
10
6240
20
10395
30
0
40
70
1
Proje
50
0
7
STANDARD
0
TEXT
8
TEXT
10
6860
20
10395
30
0
40
70
1
TEK POZ WEB DXF DENEME
50
0
7
STANDARD
0
POLYLINE
8
TABLE
66
1
70
1
0
VERTEX
8
TABLE
10
6200
20
10080
30
0
0
VERTEX
8
TABLE
10
6820
20
10080
30
0
0
VERTEX
8
TABLE
10
6820
20
10290
30
0
0
VERTEX
8
TABLE
10
6200
20
10290
30
0
0
SEQEND
0
POLYLINE
8
TABLE
66
1
70
1
0
VERTEX
8
TABLE
10
6820
20
10080
30
0
0
VERTEX
8
TABLE
10
8000
20
10080
30
0
0
VERTEX
8
TABLE
10
8000
20
10290
30
0
0
VERTEX
8
TABLE
10
6820
20
10290
30
0
0
SEQEND
0
TEXT
8
TEXT
10
6240
20
10185
30
0
40
70
1
Versiyon
50
0
7
STANDARD
0
TEXT
8
TEXT
10
6860
20
10185
30
0
40
70
1
01
50
0
7
STANDARD
0
POLYLINE
8
TABLE
66
1
70
1
0
VERTEX
8
TABLE
10
6200
20
9870
30
0
0
VERTEX
8
TABLE
10
6820
20
9870
30
0
0
VERTEX
8
TABLE
10
6820
20
10080
30
0
0
VERTEX
8
TABLE
10
6200
20
10080
30
0
0
SEQEND
0
POLYLINE
8
TABLE
66
1
70
1
0
VERTEX
8
TABLE
10
6820
20
9870
30
0
0
VERTEX
8
TABLE
10
8000
20
9870
30
0
0
VERTEX
8
TABLE
10
8000
20
10080
30
0
0
VERTEX
8
TABLE
10
6820
20
10080
30
0
0
SEQEND
0
TEXT
8
TEXT
10
6240
20
9975
30
0
40
70
1
Çizen
50
0
7
STANDARD
0
TEXT
8
TEXT
10
6860
20
9975
30
0
40
70
1
AYETULLAH KILINC
50
0
7
STANDARD
0
POLYLINE
8
TABLE
66
1
70
1
0
VERTEX
8
TABLE
10
6200
20
9660
30
0
0
VERTEX
8
TABLE
10
6820
20
9660
30
0
0
VERTEX
8
TABLE
10
6820
20
9870
30
0
0
VERTEX
8
TABLE
10
6200
20
9870
30
0
0
SEQEND
0
POLYLINE
8
TABLE
66
1
70
1
0
VERTEX
8
TABLE
10
6820
20
9660
30
0
0
VERTEX
8
TABLE
10
8000
20
9660
30
0
0
VERTEX
8
TABLE
10
8000
20
9870
30
0
0
VERTEX
8
TABLE
10
6820
20
9870
30
0
0
SEQEND
0
TEXT
8
TEXT
10
6240
20
9765
30
0
40
70
1
Tarih
50
0
7
STANDARD
0
TEXT
8
TEXT
10
6860
20
9765
30
0
40
70
1
2026-07-06
50
0
7
STANDARD
0
POLYLINE
8
TABLE
66
1
70
1
0
VERTEX
8
TABLE
10
6200
20
9450
30
0
0
VERTEX
8
TABLE
10
6820
20
9450
30
0
0
VERTEX
8
TABLE
10
6820
20
9660
30
0
0
VERTEX
8
TABLE
10
6200
20
9660
30
0
0
SEQEND
0
POLYLINE
8
TABLE
66
1
70
1
0
VERTEX
8
TABLE
10
6820
20
9450
30
0
0
VERTEX
8
TABLE
10
8000
20
9450
30
0
0
VERTEX
8
TABLE
10
8000
20
9660
30
0
0
VERTEX
8
TABLE
10
6820
20
9660
30
0
0
SEQEND
0
TEXT
8
TEXT
10
6240
20
9555
30
0
40
70
1
Genişlik
50
0
7
STANDARD
0
TEXT
8
TEXT
10
6860
20
9555
30
0
40
70
1
4200 mm
50
0
7
STANDARD
0
POLYLINE
8
TABLE
66
1
70
1
0
VERTEX
8
TABLE
10
6200
20
9240
30
0
0
VERTEX
8
TABLE
10
6820
20
9240
30
0
0
VERTEX
8
TABLE
10
6820
20
9450
30
0
0
VERTEX
8
TABLE
10
6200
20
9450
30
0
0
SEQEND
0
POLYLINE
8
TABLE
66
1
70
1
0
VERTEX
8
TABLE
10
6820
20
9240
30
0
0
VERTEX
8
TABLE
10
8000
20
9240
30
0
0
VERTEX
8
TABLE
10
8000
20
9450
30
0
0
VERTEX
8
TABLE
10
6820
20
9450
30
0
0
SEQEND
0
TEXT
8
TEXT
10
6240
20
9345
30
0
40
70
1
Açılım
50
0
7
STANDARD
0
TEXT
8
TEXT
10
6860
20
9345
30
0
40
70
1
4600 mm
50
0
7
STANDARD
0
POLYLINE
8
TABLE
66
1
70
1
0
VERTEX
8
TABLE
10
6200
20
9030
30
0
0
VERTEX
8
TABLE
10
6820
20
9030
30
0
0
VERTEX
8
TABLE
10
6820
20
9240
30
0
0
VERTEX
8
TABLE
10
6200
20
9240
30
0
0
SEQEND
0
POLYLINE
8
TABLE
66
1
70
1
0
VERTEX
8
TABLE
10
6820
20
9030
30
0
0
VERTEX
8
TABLE
10
8000
20
9030
30
0
0
VERTEX
8
TABLE
10
8000
20
9240
30
0
0
VERTEX
8
TABLE
10
6820
20
9240
30
0
0
SEQEND
0
TEXT
8
TEXT
10
6240
20
9135
30
0
40
70
1
Arka Yükseklik
50
0
7
STANDARD
0
TEXT
8
TEXT
10
6860
20
9135
30
0
40
70
1
3050 mm
50
0
7
STANDARD
0
POLYLINE
8
TABLE
66
1
70
1
0
VERTEX
8
TABLE
10
6200
20
8820
30
0
0
VERTEX
8
TABLE
10
6820
20
8820
30
0
0
VERTEX
8
TABLE
10
6820
20
9030
30
0
0
VERTEX
8
TABLE
10
6200
20
9030
30
0
0
SEQEND
0
POLYLINE
8
TABLE
66
1
70
1
0
VERTEX
8
TABLE
10
6820
20
8820
30
0
0
VERTEX
8
TABLE
10
8000
20
8820
30
0
0
VERTEX
8
TABLE
10
8000
20
9030
30
0
0
VERTEX
8
TABLE
10
6820
20
9030
30
0
0
SEQEND
0
TEXT
8
TEXT
10
6240
20
8925
30
0
40
70
1
Ön Yükseklik
50
0
7
STANDARD
0
TEXT
8
TEXT
10
6860
20
8925
30
0
40
70
1
2500 mm
50
0
7
STANDARD
0
POLYLINE
8
TABLE
66
1
70
1
0
VERTEX
8
TABLE
10
6200
20
8610
30
0
0
VERTEX
8
TABLE
10
6820
20
8610
30
0
0
VERTEX
8
TABLE
10
6820
20
8820
30
0
0
VERTEX
8
TABLE
10
6200
20
8820
30
0
0
SEQEND
0
POLYLINE
8
TABLE
66
1
70
1
0
VERTEX
8
TABLE
10
6820
20
8610
30
0
0
VERTEX
8
TABLE
10
8000
20
8610
30
0
0
VERTEX
8
TABLE
10
8000
20
8820
30
0
0
VERTEX
8
TABLE
10
6820
20
8820
30
0
0
SEQEND
0
TEXT
8
TEXT
10
6240
20
8715
30
0
40
70
1
Ray Sayısı
50
0
7
STANDARD
0
TEXT
8
TEXT
10
6860
20
8715
30
0
40
70
1
3
50
0
7
STANDARD
0
POLYLINE
8
TABLE
66
1
70
1
0
VERTEX
8
TABLE
10
6200
20
8400
30
0
0
VERTEX
8
TABLE
10
6820
20
8400
30
0
0
VERTEX
8
TABLE
10
6820
20
8610
30
0
0
VERTEX
8
TABLE
10
6200
20
8610
30
0
0
SEQEND
0
POLYLINE
8
TABLE
66
1
70
1
0
VERTEX
8
TABLE
10
6820
20
8400
30
0
0
VERTEX
8
TABLE
10
8000
20
8400
30
0
0
VERTEX
8
TABLE
10
8000
20
8610
30
0
0
VERTEX
8
TABLE
10
6820
20
8610
30
0
0
SEQEND
0
TEXT
8
TEXT
10
6240
20
8505
30
0
40
70
1
Dikme Sayısı
50
0
7
STANDARD
0
TEXT
8
TEXT
10
6860
20
8505
30
0
40
70
1
2
50
0
7
STANDARD
0
POLYLINE
8
TABLE
66
1
70
1
0
VERTEX
8
TABLE
10
6200
20
8190
30
0
0
VERTEX
8
TABLE
10
6820
20
8190
30
0
0
VERTEX
8
TABLE
10
6820
20
8400
30
0
0
VERTEX
8
TABLE
10
6200
20
8400
30
0
0
SEQEND
0
POLYLINE
8
TABLE
66
1
70
1
0
VERTEX
8
TABLE
10
6820
20
8190
30
0
0
VERTEX
8
TABLE
10
8000
20
8190
30
0
0
VERTEX
8
TABLE
10
8000
20
8400
30
0
0
VERTEX
8
TABLE
10
6820
20
8400
30
0
0
SEQEND
0
TEXT
8
TEXT
10
6240
20
8295
30
0
40
70
1
Parapet
50
0
7
STANDARD
0
TEXT
8
TEXT
10
6860
20
8295
30
0
40
70
1
HAYIR
50
0
7
STANDARD
0
POLYLINE
8
TABLE
66
1
70
1
0
VERTEX
8
TABLE
10
6200
20
7980
30
0
0
VERTEX
8
TABLE
10
6820
20
7980
30
0
0
VERTEX
8
TABLE
10
6820
20
8190
30
0
0
VERTEX
8
TABLE
10
6200
20
8190
30
0
0
SEQEND
0
POLYLINE
8
TABLE
66
1
70
1
0
VERTEX
8
TABLE
10
6820
20
7980
30
0
0
VERTEX
8
TABLE
10
8000
20
7980
30
0
0
VERTEX
8
TABLE
10
8000
20
8190
30
0
0
VERTEX
8
TABLE
10
6820
20
8190
30
0
0
SEQEND
0
TEXT
8
TEXT
10
6240
20
8085
30
0
40
70
1
Cam Kaydı
50
0
7
STANDARD
0
TEXT
8
TEXT
10
6860
20
8085
30
0
40
70
1
HAYIR
50
0
7
STANDARD
0
POLYLINE
8
TABLE
66
1
70
1
0
VERTEX
8
TABLE
10
6200
20
7770
30
0
0
VERTEX
8
TABLE
10
6820
20
7770
30
0
0
VERTEX
8
TABLE
10
6820
20
7980
30
0
0
VERTEX
8
TABLE
10
6200
20
7980
30
0
0
SEQEND
0
POLYLINE
8
TABLE
66
1
70
1
0
VERTEX
8
TABLE
10
6820
20
7770
30
0
0
VERTEX
8
TABLE
10
8000
20
7770
30
0
0
VERTEX
8
TABLE
10
8000
20
7980
30
0
0
VERTEX
8
TABLE
10
6820
20
7980
30
0
0
SEQEND
0
TEXT
8
TEXT
10
6240
20
7875
30
0
40
70
1
Üçgen Doğrama
50
0
7
STANDARD
0
TEXT
8
TEXT
10
6860
20
7875
30
0
40
70
1
HAYIR
50
0
7
STANDARD
0
POLYLINE
8
TABLE
66
1
70
1
0
VERTEX
8
TABLE
10
6200
20
7560
30
0
0
VERTEX
8
TABLE
10
6820
20
7560
30
0
0
VERTEX
8
TABLE
10
6820
20
7770
30
0
0
VERTEX
8
TABLE
10
6200
20
7770
30
0
0
SEQEND
0
POLYLINE
8
TABLE
66
1
70
1
0
VERTEX
8
TABLE
10
6820
20
7560
30
0
0
VERTEX
8
TABLE
10
8000
20
7560
30
0
0
VERTEX
8
TABLE
10
8000
20
7770
30
0
0
VERTEX
8
TABLE
10
6820
20
7770
30
0
0
SEQEND
0
TEXT
8
TEXT
10
6240
20
7665
30
0
40
70
1
Su Çıkışı Standart
50
0
7
STANDARD
0
TEXT
8
TEXT
10
6860
20
7665
30
0
40
70
1
EVET
50
0
7
STANDARD
0
POLYLINE
8
TABLE
66
1
70
1
0
VERTEX
8
TABLE
10
6200
20
7350
30
0
0
VERTEX
8
TABLE
10
6820
20
7350
30
0
0
VERTEX
8
TABLE
10
6820
20
7560
30
0
0
VERTEX
8
TABLE
10
6200
20
7560
30
0
0
SEQEND
0
POLYLINE
8
TABLE
66
1
70
1
0
VERTEX
8
TABLE
10
6820
20
7350
30
0
0
VERTEX
8
TABLE
10
8000
20
7350
30
0
0
VERTEX
8
TABLE
10
8000
20
7560
30
0
0
VERTEX
8
TABLE
10
6820
20
7560
30
0
0
SEQEND
0
TEXT
8
TEXT
10
6240
20
7455
30
0
40
70
1
Structure Color
50
0
7
STANDARD
0
TEXT
8
TEXT
10
6860
20
7455
30
0
40
70
1
-
50
0
7
STANDARD
0
POLYLINE
8
TABLE
66
1
70
1
0
VERTEX
8
TABLE
10
6200
20
7140
30
0
0
VERTEX
8
TABLE
10
6820
20
7140
30
0
0
VERTEX
8
TABLE
10
6820
20
7350
30
0
0
VERTEX
8
TABLE
10
6200
20
7350
30
0
0
SEQEND
0
POLYLINE
8
TABLE
66
1
70
1
0
VERTEX
8
TABLE
10
6820
20
7140
30
0
0
VERTEX
8
TABLE
10
8000
20
7140
30
0
0
VERTEX
8
TABLE
10
8000
20
7350
30
0
0
VERTEX
8
TABLE
10
6820
20
7350
30
0
0
SEQEND
0
TEXT
8
TEXT
10
6240
20
7245
30
0
40
70
1
Fabric
50
0
7
STANDARD
0
TEXT
8
TEXT
10
6860
20
7245
30
0
40
70
1
-
50
0
7
STANDARD
0
POLYLINE
8
TABLE
66
1
70
1
0
VERTEX
8
TABLE
10
6200
20
6930
30
0
0
VERTEX
8
TABLE
10
6820
20
6930
30
0
0
VERTEX
8
TABLE
10
6820
20
7140
30
0
0
VERTEX
8
TABLE
10
6200
20
7140
30
0
0
SEQEND
0
POLYLINE
8
TABLE
66
1
70
1
0
VERTEX
8
TABLE
10
6820
20
6930
30
0
0
VERTEX
8
TABLE
10
8000
20
6930
30
0
0
VERTEX
8
TABLE
10
8000
20
7140
30
0
0
VERTEX
8
TABLE
10
6820
20
7140
30
0
0
SEQEND
0
TEXT
8
TEXT
10
6240
20
7035
30
0
40
70
1
Motor / Remote
50
0
7
STANDARD
0
TEXT
8
TEXT
10
6860
20
7035
30
0
40
70
1
- / -
50
0
7
STANDARD
0
POLYLINE
8
TABLE
66
1
70
1
0
VERTEX
8
TABLE
10
6200
20
6720
30
0
0
VERTEX
8
TABLE
10
6820
20
6720
30
0
0
VERTEX
8
TABLE
10
6820
20
6930
30
0
0
VERTEX
8
TABLE
10
6200
20
6930
30
0
0
SEQEND
0
POLYLINE
8
TABLE
66
1
70
1
0
VERTEX
8
TABLE
10
6820
20
6720
30
0
0
VERTEX
8
TABLE
10
8000
20
6720
30
0
0
VERTEX
8
TABLE
10
8000
20
6930
30
0
0
VERTEX
8
TABLE
10
6820
20
6930
30
0
0
SEQEND
0
TEXT
8
TEXT
10
6240
20
6825
30
0
40
70
1
Extras
50
0
7
STANDARD
0
TEXT
8
TEXT
10
6860
20
6825
30
0
40
70
1
-
50
0
7
STANDARD
0
POLYLINE
8
TITLE
66
1
70
1
0
VERTEX
8
TITLE
10
600
20
220
30
0
0
VERTEX
8
TITLE
10
5800
20
220
30
0
0
VERTEX
8
TITLE
10
5800
20
640
30
0
0
VERTEX
8
TITLE
10
600
20
640
30
0
0
SEQEND
0
POLYLINE
8
PROFILE
66
1
70
1
0
VERTEX
8
PROFILE
10
600
20
220
30
0
0
VERTEX
8
PROFILE
10
1530
20
220
30
0
0
VERTEX
8
PROFILE
10
1530
20
640
30
0
0
VERTEX
8
PROFILE
10
600
20
640
30
0
0
SEQEND
0
TEXT
8
TITLE
10
1065
20
430
30
0
40
180
1
PLMR
50
0
7
STANDARD
72
1
73
2
11
1065
21
430
31
0
0
TEXT
8
TITLE
10
1700
20
470
30
0
40
85
1
Pülümür Automation Studio | Parametrik Çizim ve Proje Otomasyonu
50
0
7
STANDARD
0
TEXT
8
TEXT
10
1700
20
340
30
0
40
70
1
Ürün: Pergo Rise | Modül: Module 1 | Motor: Web DXF
50
0
7
STANDARD
0
ENDSEC
0
EOF